<?xml version="1.0" encoding="utf-8"?>
<!-- Generator: Adobe Illustrator 16.0.0, SVG Export Plug-In . SVG Version: 6.00 Build 0)  -->
<!DOCTYPE svg PUBLIC "-//W3C//DTD SVG 1.1//EN" "http://www.w3.org/Graphics/SVG/1.1/DTD/svg11.dtd">
<svg version="1.1" id="Capa_1" xmlns="http://www.w3.org/2000/svg" xmlns:xlink="http://www.w3.org/1999/xlink" x="0px" y="0px"
	 width="100px" height="100px" viewBox="0 0 100 100" enable-background="new 0 0 100 100" xml:space="preserve">
<g>
	<g>
		<path fill="#80714A" d="M85.236,2.646c6.682,0,12.118,5.436,12.118,12.118v70.472c0,6.682-5.437,12.119-12.118,12.119H14.764
			c-6.682,0-12.118-5.437-12.118-12.119V14.764c0-6.682,5.437-12.118,12.118-12.118H85.236 M85.236,0H14.764
			C6.609,0,0,6.611,0,14.764v70.472C0,93.39,6.609,100,14.764,100h70.473C93.391,100,100,93.39,100,85.236V14.764
			C100,6.611,93.391,0,85.236,0L85.236,0z"/>
	</g>
	<g id="outline_4_">
		<path fill="#80714A" d="M86.482,41.558c-1.615-3.262-4.945-5.319-8.586-5.308h-3.412c-2.002-0.003-3.953,0.622-5.58,1.788
			l-1.6,1.143c0.045-0.574,0.084-1.149,0.121-1.725l0.07-1.128c0.045-0.689-0.48-1.282-1.17-1.325
			C66.299,35.001,66.273,35,66.248,35H18.75c-0.691,0-1.25,0.561-1.25,1.25c0,0.026,0,0.053,0.002,0.078l0.07,1.128
			c0.582,9.292,2.156,18.495,4.695,27.452c-1.469-0.373-3.012-0.327-4.455,0.13c-1.777,0.587-3.086,1.776-3.701,3.356
			c-0.002,0.005-0.004,0.012-0.008,0.018c-0.006,0.018-0.014,0.034-0.02,0.052c-0.004,0.01-0.008,0.021-0.012,0.031
			c-0.002,0.012-0.006,0.021-0.01,0.031c-0.451,1.294-0.41,2.706,0.111,3.973H13.75c-0.691,0-1.25,0.56-1.25,1.25
			c0,0.149,0.027,0.3,0.08,0.439c1.275,3.401,2.889,6.67,4.814,9.75l0.295,0.473c0.229,0.366,0.629,0.587,1.061,0.587h47.498
			c0.432,0,0.832-0.221,1.061-0.587l0.295-0.473c1.926-3.08,3.539-6.349,4.814-9.75c0.242-0.646-0.086-1.367-0.73-1.609
			c-0.141-0.053-0.291-0.08-0.439-0.08H60.324c0.582-1.657,1.129-3.323,1.643-5h2.695c3.307,0,6.477-1.313,8.814-3.65L84.686,52.64
			C87.611,49.72,88.336,45.253,86.482,41.558z M65.971,50.363l6.838-5.982c0.465-0.406,1.061-0.63,1.676-0.63h2.58
			c1.406,0,2.545,1.141,2.545,2.545c0,0.702-0.289,1.372-0.799,1.853L68.17,58.177c-0.846,0.798-2.178,0.758-2.975-0.088
			c-0.211-0.223-0.369-0.489-0.467-0.778l-0.053-0.159C65.166,54.901,65.6,52.638,65.971,50.363z M24.902,67.324
			c0.256-0.25,0.533-0.48,0.826-0.687c1.137-0.795,2.438-1.19,3.664-1.113c0.686,0.029,1.348,0.252,1.914,0.642l-1.713,1.976
			c-0.396,0.455-0.941,0.755-1.539,0.843c-1.188,0.178-2.271,0.771-3.059,1.678l-1.396,1.61
			C22.832,70.816,23.385,68.806,24.902,67.324L24.902,67.324z M30.479,72.438c-0.023,0.02-0.045,0.04-0.066,0.062h-3.699
			l0.172-0.198c0.395-0.456,0.941-0.756,1.537-0.843c1.188-0.178,2.271-0.773,3.059-1.681l1.01-1.163
			C32.475,69.918,31.758,71.371,30.479,72.438z M18.596,67.412c1.023-0.317,2.117-0.337,3.152-0.056
			c-0.254,0.439-0.463,0.905-0.625,1.388c-0.609-0.361-1.291-0.59-1.996-0.668l-1.541-0.172
			C17.896,67.694,18.236,67.529,18.596,67.412z M16.254,70.27l2.596,0.29c0.6,0.067,1.154,0.347,1.566,0.787
			c0.133,0.141,0.273,0.273,0.422,0.398c0.037,0.255,0.096,0.507,0.17,0.754H17C16.52,71.855,16.26,71.074,16.254,70.27z
			 M65.555,82.5H19.441c-1.484-2.393-2.773-4.901-3.854-7.5H69.41C68.33,77.598,67.041,80.107,65.555,82.5z M33.754,72.5
			c1.506-2.267,1.691-4.999,0.309-7.032c-0.002-0.004-0.004-0.009-0.008-0.014c-0.012-0.016-0.021-0.032-0.031-0.049
			c-0.008-0.01-0.014-0.018-0.021-0.027c-0.006-0.01-0.012-0.015-0.018-0.022c-0.99-1.381-2.562-2.206-4.434-2.324
			c-1.713-0.083-3.408,0.369-4.852,1.294c-2.488-8.752-4.035-17.744-4.619-26.824h44.838C64.152,49.449,61.713,61.23,57.672,72.5
			H33.754z M82.916,50.873L71.709,62.08C69.84,63.95,67.305,65,64.662,65h-1.957c0.441-1.556,0.855-3.118,1.238-4.687
			c1.791,1.36,4.305,1.227,5.941-0.316l10.641-10.029c2.027-1.911,2.121-5.104,0.211-7.133c-0.953-1.011-2.281-1.584-3.672-1.584
			h-2.58c-1.223,0-2.402,0.443-3.322,1.248l-4.625,4.047c0.182-1.358,0.34-2.72,0.479-4.086l3.342-2.387
			c1.203-0.862,2.646-1.324,4.127-1.322h3.412c3.922,0,7.102,3.18,7.102,7.102C84.998,47.735,84.248,49.541,82.916,50.873z"/>
		<path fill="#80714A" d="M28.16,55.534c-0.213-0.655-0.92-1.012-1.576-0.797c-0.656,0.216-1.014,0.923-0.797,1.578
			c0,0.004,0.002,0.007,0.002,0.01l0.525,1.57c0.217,0.654,0.926,1.01,1.58,0.791c0.654-0.218,1.01-0.926,0.791-1.582l0,0
			L28.16,55.534z"/>
		<path fill="#80714A" d="M25.98,52.475c0.676-0.133,1.117-0.79,0.982-1.468c-0.475-2.39-0.713-4.82-0.713-7.257
			c0-0.69-0.561-1.25-1.25-1.25c-0.691,0-1.25,0.56-1.25,1.25c0,2.6,0.254,5.193,0.762,7.743c0.133,0.676,0.789,1.117,1.465,0.983
			c0.002,0,0.002-0.002,0.002-0.002H25.98z"/>
		<path fill="#80714A" d="M35.938,16.251c0-0.69-0.561-1.25-1.25-1.25c-0.691,0-1.25,0.56-1.25,1.25c0,0.833-0.26,1.178-0.688,1.749
			c-0.502,0.669-1.188,1.583-1.188,3.251c0,1.667,0.686,2.582,1.188,3.25c0.428,0.571,0.688,0.916,0.688,1.75
			c0,0.833-0.26,1.178-0.688,1.749c-0.502,0.669-1.188,1.584-1.188,3.25c0,0.69,0.559,1.25,1.25,1.25c0.689,0,1.25-0.56,1.25-1.25
			c0-0.833,0.258-1.178,0.686-1.749c0.502-0.669,1.189-1.584,1.189-3.25c0-1.667-0.688-2.582-1.189-3.251
			c-0.428-0.571-0.686-0.916-0.686-1.749s0.258-1.179,0.686-1.75C35.25,18.833,35.938,17.917,35.938,16.251z"/>
		<path fill="#80714A" d="M44.686,16.251c0-0.69-0.559-1.25-1.248-1.25c-0.691,0-1.252,0.56-1.252,1.25
			c0,0.833-0.258,1.178-0.686,1.749c-0.502,0.669-1.188,1.583-1.188,3.251c0,1.667,0.686,2.582,1.188,3.25
			c0.428,0.571,0.686,0.916,0.686,1.75c0,0.833-0.258,1.178-0.686,1.749c-0.502,0.669-1.188,1.584-1.188,3.25
			c0,0.69,0.559,1.25,1.25,1.25c0.689,0,1.25-0.56,1.25-1.25c0-0.833,0.258-1.178,0.686-1.749c0.502-0.669,1.188-1.584,1.188-3.25
			c0-1.667-0.686-2.582-1.188-3.251c-0.428-0.571-0.686-0.916-0.686-1.749s0.258-1.179,0.686-1.75
			C44,18.833,44.686,17.917,44.686,16.251z"/>
		<path fill="#80714A" d="M53.436,16.251c0-0.69-0.559-1.25-1.25-1.25c-0.689,0-1.25,0.56-1.25,1.25
			c0,0.833-0.258,1.178-0.686,1.749c-0.502,0.669-1.189,1.583-1.189,3.251c0,1.667,0.688,2.582,1.189,3.25
			c0.428,0.571,0.686,0.916,0.686,1.75c0,0.833-0.258,1.178-0.686,1.749c-0.502,0.669-1.189,1.584-1.189,3.25
			c0,0.69,0.561,1.25,1.252,1.25c0.689,0,1.248-0.56,1.248-1.25c0-0.833,0.258-1.178,0.688-1.749
			c0.502-0.669,1.188-1.584,1.188-3.25c0-1.667-0.686-2.582-1.188-3.251c-0.43-0.571-0.688-0.916-0.688-1.749
			s0.258-1.179,0.688-1.75C52.75,18.833,53.436,17.917,53.436,16.251z"/>
	</g>
</g>
</svg>
