<?xml version="1.0" encoding="utf-8"?>
<!-- Generator: Adobe Illustrator 16.0.0, SVG Export Plug-In . SVG Version: 6.00 Build 0)  -->
<!DOCTYPE svg PUBLIC "-//W3C//DTD SVG 1.1//EN" "http://www.w3.org/Graphics/SVG/1.1/DTD/svg11.dtd">
<svg version="1.1" id="Capa_1" xmlns="http://www.w3.org/2000/svg" xmlns:xlink="http://www.w3.org/1999/xlink" x="0px" y="0px"
	 width="100px" height="100px" viewBox="0 0 100 100" enable-background="new 0 0 100 100" xml:space="preserve">
<g>
	<g>
		<path fill="#80714A" d="M85.235,2.646c6.683,0,12.119,5.436,12.119,12.118v70.473c0,6.682-5.437,12.118-12.119,12.118H14.765
			c-6.683,0-12.119-5.436-12.119-12.118V14.764c0-6.682,5.437-12.118,12.119-12.118H85.235 M85.235,0H14.765
			C6.61,0,0,6.611,0,14.764v70.473C0,93.391,6.61,100,14.765,100h70.471C93.39,100,100,93.391,100,85.237V14.764
			C100,6.611,93.39,0,85.235,0L85.235,0z"/>
	</g>
	<g id="out_lline_1_">
		<circle fill="#80714A" cx="50.001" cy="55.401" r="2.359"/>
		<path fill="#80714A" d="M50.001,29.465c6.258-0.018,12.264,2.472,16.678,6.908l3.336-3.336c-11.053-11.055-28.975-11.055-40.028,0
			h-0.001l3.336,3.336C37.735,31.937,43.742,29.448,50.001,29.465z"/>
		<path fill="#80714A" d="M36.657,39.709l3.336,3.335c5.526-5.528,14.488-5.528,20.014,0l3.337-3.335
			C55.974,32.34,44.026,32.34,36.657,39.709L36.657,39.709z"/>
		<path fill="#80714A" d="M43.329,46.379l3.336,3.336c1.842-1.843,4.828-1.843,6.67,0l0,0l3.336-3.336
			C52.987,42.694,47.013,42.694,43.329,46.379L43.329,46.379z"/>
		<path fill="#80714A" d="M22.501,40c0.014,8.377,2.805,16.513,7.938,23.135l18.575,23.883c0.424,0.544,1.21,0.643,1.754,0.219
			c0.082-0.063,0.156-0.137,0.22-0.219l18.575-23.883C74.695,56.513,77.487,48.377,77.5,40c0-15.164-12.336-27.5-27.499-27.5
			C34.837,12.5,22.501,24.836,22.501,40z M48.751,82.608L32.411,61.6c-4.791-6.182-7.398-13.777-7.41-21.6c0-13.785,11.214-25,25-25
			C63.786,15,75,26.215,75,40c-0.013,7.822-2.619,15.418-7.411,21.6l-16.34,21.008"/>
	</g>
</g>
</svg>
