<?xml version="1.0" encoding="utf-8"?>
<!-- Generator: Adobe Illustrator 16.0.0, SVG Export Plug-In . SVG Version: 6.00 Build 0)  -->
<!DOCTYPE svg PUBLIC "-//W3C//DTD SVG 1.1//EN" "http://www.w3.org/Graphics/SVG/1.1/DTD/svg11.dtd">
<svg version="1.1" id="Capa_1" xmlns="http://www.w3.org/2000/svg" xmlns:xlink="http://www.w3.org/1999/xlink" x="0px" y="0px"
	 width="100px" height="100px" viewBox="0 0 100 100" enable-background="new 0 0 100 100" xml:space="preserve">
<g>
	<g>
		<path fill="#80714A" d="M85.236,2.646c6.682,0,12.118,5.436,12.118,12.118v70.472c0,6.682-5.437,12.119-12.118,12.119H14.764
			c-6.682,0-12.118-5.437-12.118-12.119V14.764c0-6.682,5.437-12.118,12.118-12.118H85.236 M85.236,0H14.764
			C6.609,0,0,6.611,0,14.764v70.472C0,93.39,6.609,100,14.764,100h70.473C93.391,100,100,93.39,100,85.236V14.764
			C100,6.611,93.391,0,85.236,0L85.236,0z"/>
	</g>
	<g>
		<g>
			<g>
				<path fill="#80714A" d="M86.25,36.25h-30V19.375c-0.004-3.105-2.52-5.621-5.625-5.625h-1.25
					c-3.105,0.004-5.621,2.52-5.625,5.625V36.25h-30c-0.689,0-1.25,0.56-1.25,1.25v13.75c0,0.69,0.561,1.25,1.25,1.25h7.693
					l5.029,32.689c0.094,0.61,0.619,1.061,1.236,1.061h45c0.617,0,1.141-0.45,1.234-1.061L78.973,52.5h7.277
					c0.689,0,1.25-0.56,1.25-1.25V37.5C87.5,36.81,86.939,36.25,86.25,36.25z M46.25,19.375c0-1.726,1.398-3.125,3.125-3.125h1.25
					c1.727,0,3.125,1.399,3.125,3.125v22.5c0,1.726-1.398,3.125-3.125,3.125h-1.25c-1.727,0-3.125-1.399-3.125-3.125V19.375z
					 M71.637,83.75H28.781L23.973,52.5h52.471L71.637,83.75z M85,50H15V38.75h28.75v3.125c0.004,3.105,2.52,5.621,5.625,5.625h1.25
					c3.105-0.004,5.621-2.52,5.625-5.625V38.75H85V50z"/>
				<path fill="#80714A" d="M35,81.25c2.07,0,3.75-1.679,3.75-3.751V58.75c0-2.071-1.68-3.75-3.75-3.75
					c-2.072,0-3.75,1.679-3.75,3.75V77.5C31.25,79.572,32.928,81.25,35,81.25z M33.75,58.75c0-0.69,0.559-1.25,1.25-1.25
					s1.25,0.56,1.25,1.25V77.5c0,0.69-0.559,1.251-1.25,1.251s-1.25-0.561-1.25-1.251V58.75z"/>
				<path fill="#80714A" d="M45,81.25c2.072,0,3.75-1.679,3.75-3.751V58.75c0-2.071-1.678-3.75-3.75-3.75
					c-2.07,0-3.75,1.679-3.75,3.75V77.5C41.25,79.572,42.93,81.25,45,81.25z M43.75,58.75c0-0.69,0.561-1.25,1.25-1.25
					c0.691,0,1.25,0.56,1.25,1.25V77.5c0,0.69-0.559,1.251-1.25,1.251c-0.689,0-1.25-0.561-1.25-1.251V58.75z"/>
				<path fill="#80714A" d="M55,81.25c2.072,0,3.75-1.679,3.75-3.751V58.75c0-2.071-1.678-3.75-3.75-3.75
					c-2.07,0-3.75,1.679-3.75,3.75V77.5C51.25,79.572,52.93,81.25,55,81.25z M53.75,58.75c0-0.69,0.561-1.25,1.25-1.25
					c0.691,0,1.25,0.56,1.25,1.25V77.5c0,0.69-0.559,1.251-1.25,1.251c-0.689,0-1.25-0.561-1.25-1.251V58.75z"/>
				<path fill="#80714A" d="M65,81.25c2.07,0,3.75-1.679,3.75-3.751V58.75c0-2.071-1.68-3.75-3.75-3.75s-3.75,1.679-3.75,3.75V77.5
					C61.25,79.572,62.93,81.25,65,81.25z M63.75,58.75c0-0.69,0.559-1.25,1.25-1.25c0.689,0,1.25,0.56,1.25,1.25V77.5
					c0,0.69-0.561,1.251-1.25,1.251c-0.691,0-1.25-0.561-1.25-1.251V58.75z"/>
				<path fill="#80714A" d="M50,42.5c1.035,0,1.875-0.84,1.875-1.875c0-1.036-0.84-1.875-1.875-1.875s-1.875,0.839-1.875,1.875
					C48.125,41.661,48.965,42.5,50,42.5z M50,40c0.346,0,0.625,0.28,0.625,0.626c0,0.345-0.279,0.625-0.625,0.625
					s-0.625-0.28-0.625-0.625C49.375,40.28,49.654,40,50,40z"/>
			</g>
		</g>
	</g>
</g>
</svg>
