<?xml version="1.0" encoding="utf-8"?>
<!-- Generator: Adobe Illustrator 16.0.0, SVG Export Plug-In . SVG Version: 6.00 Build 0)  -->
<!DOCTYPE svg PUBLIC "-//W3C//DTD SVG 1.1//EN" "http://www.w3.org/Graphics/SVG/1.1/DTD/svg11.dtd">
<svg version="1.1" id="Capa_1" xmlns="http://www.w3.org/2000/svg" xmlns:xlink="http://www.w3.org/1999/xlink" x="0px" y="0px"
	 width="100px" height="100px" viewBox="0 0 100 100" enable-background="new 0 0 100 100" xml:space="preserve">
<g>
	<g>
		<path fill="#80714A" d="M85.235,2.646c6.683,0,12.119,5.436,12.119,12.118v70.473c0,6.682-5.437,12.118-12.119,12.118H14.765
			c-6.683,0-12.119-5.436-12.119-12.118V14.764c0-6.682,5.437-12.118,12.119-12.118H85.235 M85.235,0H14.765
			C6.61,0,0,6.611,0,14.764v70.473C0,93.391,6.61,100,14.765,100h70.471C93.39,100,100,93.391,100,85.237V14.764
			C100,6.611,93.39,0,85.235,0L85.235,0z"/>
	</g>
	<g id="outline_7_">
		<path fill="#80714A" d="M24.476,63.056c-3.646-1.328-7.68,0.551-9.008,4.197c-0.856,2.35-0.4,4.978,1.198,6.899h-1.624
			c-0.702,0-1.271,0.568-1.271,1.271v4.132c0.004,2.633,2.137,4.765,4.768,4.768h23.518c0.461,0,0.92-0.066,1.361-0.199
			c0.488,0.133,0.992,0.199,1.498,0.199h16.526c1.144,0,2.263-0.343,3.21-0.989c0.131,0.579,0.646,0.989,1.238,0.989h20.34
			c0.701,0,1.271-0.568,1.271-1.271V40.784c-0.004-2.631-2.137-4.765-4.768-4.767h-1.59v-3.813c0-0.702-0.568-1.271-1.271-1.271
			v-5.83l2.171-2.17c0.238-0.238,0.371-0.563,0.371-0.899v-5.085c0-0.701-0.568-1.271-1.271-1.271H70.216
			c-5.557,0.007-10.946,1.896-15.289,5.363c-0.549,0.438-0.638,1.239-0.198,1.787c0.081,0.101,0.178,0.189,0.286,0.263l3.814,2.543
			c0.348,0.231,0.788,0.277,1.177,0.122l5.037-2.016c0.721-0.289,1.489-0.437,2.267-0.436h3.139l1.798,1.798v5.83
			c-0.702,0-1.271,0.568-1.271,1.271v3.813h-1.589c-2.631,0.002-4.764,2.136-4.768,4.767V52.39
			c-0.755-0.539-1.625-0.897-2.542-1.043v-6.432c0-0.702-0.569-1.272-1.271-1.272h-2.543v-3.812c0-0.702-0.568-1.271-1.271-1.271
			v-2.542c2.107,0,3.814-1.708,3.814-3.813c0-2.106-1.707-3.813-3.814-3.813h-7.627c-0.197,0-0.392,0.047-0.568,0.135l-7.627,3.812
			c-0.628,0.313-0.882,1.077-0.568,1.705c0.023,0.048,0.051,0.094,0.079,0.138l2.542,3.813c0.334,0.5,0.973,0.697,1.53,0.476
			l4.612-1.846v1.936c-0.702,0-1.271,0.569-1.271,1.271v3.812h-2.541c-0.703,0-1.271,0.57-1.271,1.272v6.432
			c-2.928,0.472-5.082,2.998-5.086,5.962v5.361c-1.041-0.104-2.093,0.029-3.077,0.386C32.356,64.421,28.236,64.421,24.476,63.056z
			 M18.538,81.781c-1.229-0.002-2.224-0.997-2.225-2.226v-2.859H44.28v2.859c-0.002,1.229-0.997,2.224-2.225,2.226H18.538z
			 M67.161,46.186h10.17l0.002,22.882H67.161V46.186z M78.602,33.474v2.543h-1.271v-2.543H78.602z M70.975,20.763H67.31
			c-1.1-0.001-2.189,0.208-3.209,0.618l-4.418,1.766l-1.747-1.164c3.628-2.447,7.904-3.758,12.28-3.763h9.657v3.287l-1.798,1.798
			h-4.031l-2.17-2.17C71.636,20.896,71.312,20.763,70.975,20.763z M74.788,25.848h2.543v5.085h-2.543V25.848z M73.518,33.474h1.271
			v2.543h-1.271V33.474z M69.386,38.559h13.348c1.229,0.001,2.224,0.997,2.225,2.225v35.912h-2.543
			c-0.701,0-1.271,0.568-1.271,1.271s0.57,1.271,1.271,1.271h2.543v2.543H67.161v-2.543h10.17c0.702,0,1.271-0.569,1.271-1.271
			s-0.568-1.271-1.271-1.271h-10.17v-5.085h10.17c1.403-0.002,2.54-1.14,2.542-2.543V46.186c-0.002-1.402-1.139-2.541-2.542-2.543
			h-10.17v-2.859C67.163,39.556,68.157,38.56,69.386,38.559z M59.534,51.271h-2.543v-5.085h2.543V51.271z M51.907,51.271v-5.085
			h2.542v5.085H51.907z M43.593,33.967l6.072-3.034h7.326c0.703,0,1.271,0.568,1.271,1.271s-0.568,1.271-1.271,1.271h-6.355
			c-0.041,0-0.084,0.003-0.125,0.007c-0.021,0.002-0.041,0.006-0.062,0.01c-0.02,0.003-0.039,0.004-0.058,0.008
			c-0.026,0.004-0.052,0.012-0.075,0.019c-0.015,0.005-0.029,0.007-0.043,0.011c-0.026,0.009-0.052,0.018-0.078,0.026
			c-0.01,0.005-0.021,0.007-0.031,0.011l-0.019,0.009l-0.005,0.001l-5.375,2.15L43.593,33.967z M51.907,36.017h2.542v2.542h-2.542
			V36.017z M50.636,41.101h5.085v2.542h-5.085V41.101z M46.821,46.186h2.543v5.085h-2.543V46.186z M45.233,53.813h15.89
			c1.93,0.003,3.493,1.567,3.495,3.496v21.294c-0.001,1.753-1.423,3.175-3.177,3.178H46.27c0.363-0.686,0.554-1.449,0.552-2.226
			v-1.589h5.404c2.631-0.003,4.764-2.136,4.766-4.767V62.394c-0.002-2.631-2.135-4.764-4.766-4.766H41.737v-0.319
			C41.739,55.38,43.304,53.816,45.233,53.813z M41.737,60.169h10.488c1.227,0.001,2.223,0.997,2.224,2.225V73.2
			c-0.001,1.228-0.997,2.223-2.224,2.224h-5.404c0-0.702-0.568-1.271-1.27-1.271h-1.625c2.482-2.972,2.085-7.396-0.888-9.877
			c-0.401-0.335-0.837-0.623-1.302-0.861V60.169z M36.986,65.445c2.33-0.848,4.905,0.355,5.753,2.685
			c0.178,0.493,0.27,1.012,0.27,1.535c-0.003,2.478-2.011,4.485-4.488,4.488H22.073c-2.479-0.003-4.485-2.011-4.488-4.488
			c0.003-2.473,2.001-4.479,4.473-4.495c0.529,0.001,1.053,0.095,1.549,0.277C27.929,67.015,32.665,67.015,36.986,65.445z"/>
		<path fill="#80714A" d="M26.081,70.274c2.737,0.907,5.693,0.907,8.432,0c0.668-0.214,1.037-0.928,0.825-1.597
			c-0.214-0.669-0.929-1.039-1.598-0.825c-0.011,0.003-0.021,0.006-0.032,0.011c-2.215,0.732-4.607,0.732-6.823,0
			c-0.663-0.231-1.388,0.119-1.618,0.782c-0.23,0.664,0.119,1.388,0.783,1.618C26.061,70.266,26.071,70.271,26.081,70.274z"/>
		<path fill="#80714A" d="M30.296,48.728c-2.807,0-5.084,2.277-5.084,5.085c0,2.81,2.277,5.085,5.084,5.085
			c2.809,0,5.086-2.275,5.086-5.085C35.378,51.006,33.104,48.732,30.296,48.728z M30.296,56.356c-1.403,0-2.541-1.139-2.541-2.543
			c0-1.403,1.138-2.542,2.541-2.542c1.404,0,2.543,1.139,2.543,2.542C32.837,55.217,31.7,56.354,30.296,56.356z"/>
		<path fill="#80714A" d="M19.491,50c3.861,0,6.992-3.131,6.992-6.992c0-3.86-3.131-6.991-6.992-6.991S12.5,39.148,12.5,43.008
			C12.504,46.868,15.632,49.996,19.491,50z M19.491,38.559c2.458,0,4.449,1.992,4.449,4.449c0,2.458-1.991,4.45-4.449,4.45
			c-2.457,0-4.449-1.992-4.449-4.45C15.045,40.552,17.035,38.562,19.491,38.559z"/>
		<path fill="#80714A" d="M29.026,33.474c2.807,0,5.084-2.277,5.084-5.084c0-2.809-2.277-5.085-5.084-5.085
			c-2.809,0-5.086,2.276-5.086,5.085C23.944,31.197,26.218,33.471,29.026,33.474z M29.026,25.848c1.402,0,2.541,1.138,2.541,2.542
			c0,1.403-1.139,2.543-2.541,2.543c-1.404,0-2.543-1.14-2.543-2.543C26.484,26.986,27.622,25.849,29.026,25.848z"/>
	</g>
</g>
</svg>
