<?xml version="1.0" encoding="utf-8"?>
<!-- Generator: Adobe Illustrator 16.0.0, SVG Export Plug-In . SVG Version: 6.00 Build 0)  -->
<!DOCTYPE svg PUBLIC "-//W3C//DTD SVG 1.1//EN" "http://www.w3.org/Graphics/SVG/1.1/DTD/svg11.dtd">
<svg version="1.1" id="Capa_1" xmlns="http://www.w3.org/2000/svg" xmlns:xlink="http://www.w3.org/1999/xlink" x="0px" y="0px"
	 width="100px" height="100px" viewBox="0 0 100 100" enable-background="new 0 0 100 100" xml:space="preserve">
<g>
	<g>
		<path fill="#80714A" d="M85.235,2.646c6.683,0,12.119,5.436,12.119,12.118v70.472c0,6.682-5.437,12.119-12.119,12.119H14.765
			c-6.683,0-12.119-5.437-12.119-12.119V14.764c0-6.682,5.437-12.118,12.119-12.118H85.235 M85.235,0H14.765C6.61,0,0,6.61,0,14.764
			v70.472C0,93.39,6.61,100,14.765,100h70.471C93.39,100,100,93.39,100,85.236V14.764C100,6.61,93.39,0,85.235,0L85.235,0z"/>
	</g>
	<g>
		<path fill="#80714A" d="M49.976,53.707c-0.689,0-1.249,0.56-1.249,1.249c0,0.69,0.56,1.25,1.249,1.25
			c0.69,0,1.249,0.559,1.249,1.249c0,0.689,0.561,1.249,1.25,1.249c0.69,0,1.249-0.56,1.249-1.249
			C53.724,55.384,52.046,53.707,49.976,53.707z"/>
		<path fill="#80714A" d="M62.468,53.707c-0.689,0-1.248,0.56-1.248,1.249c0,0.69,0.559,1.25,1.248,1.25
			c0.691,0,1.25,0.559,1.25,1.249c0,0.689,0.559,1.249,1.248,1.249c0.691,0,1.25-0.56,1.25-1.249
			C66.216,55.384,64.538,53.707,62.468,53.707z"/>
		<path fill="#80714A" d="M54.974,42.464c0,0.689,0.559,1.25,1.249,1.25s1.249,0.559,1.249,1.249c0,0.689,0.559,1.249,1.249,1.249
			s1.249-0.56,1.249-1.249c0-2.07-1.678-3.749-3.747-3.749C55.532,41.214,54.974,41.775,54.974,42.464z"/>
		<path fill="#80714A" d="M49.976,31.221c0.69,0,1.249,0.56,1.249,1.249c0,0.69,0.561,1.249,1.25,1.249
			c0.69,0,1.249-0.559,1.249-1.249c0-2.069-1.678-3.747-3.748-3.747c-0.689,0-1.249,0.56-1.249,1.249
			C48.727,30.663,49.286,31.221,49.976,31.221z"/>
		<path fill="#80714A" d="M43.729,43.714c0.691,0,1.25,0.559,1.25,1.249c0,0.689,0.559,1.249,1.25,1.249
			c0.689,0,1.248-0.56,1.248-1.249c0-2.07-1.678-3.749-3.748-3.749c-0.689,0-1.249,0.561-1.249,1.25S43.04,43.714,43.729,43.714z"/>
		<path fill="#80714A" d="M37.483,53.707c-0.689,0-1.248,0.56-1.248,1.249c0,0.69,0.559,1.25,1.248,1.25
			c0.691,0,1.25,0.559,1.25,1.249c0,0.689,0.559,1.249,1.249,1.249s1.249-0.56,1.249-1.249
			C41.231,55.384,39.554,53.707,37.483,53.707z"/>
		<path fill="#80714A" d="M74.478,61.35L51.081,16.898c-0.213-0.406-0.633-0.663-1.092-0.667h-0.014
			c-0.454,0-0.872,0.246-1.092,0.644L22.649,64.346c-0.334,0.602-0.114,1.364,0.488,1.697c0.186,0.102,0.393,0.156,0.604,0.156
			h43.136c-0.077,0.116-0.163,0.223-0.236,0.343c-3.284,5.291-1.658,12.243,3.634,15.528c5.289,3.286,12.243,1.66,15.527-3.632
			c3.285-5.292,1.659-12.244-3.633-15.528C79.875,61.486,77.146,60.933,74.478,61.35z M63.624,46.094l2.556,4.854
			c-1.13-0.649-2.409-0.989-3.712-0.988c-0.234,0-0.471,0.012-0.703,0.034C62.759,48.907,63.406,47.549,63.624,46.094z
			 M61.22,44.963c0.002,1.325-0.525,2.599-1.465,3.533c-1.979,1.885-5.087,1.885-7.065,0c-1.952-1.95-1.952-5.115-0.001-7.066
			c1.951-1.952,5.115-1.952,7.066-0.001C60.692,42.367,61.22,43.637,61.22,44.963z M56.925,52.423
			c-0.258,0.279-0.493,0.578-0.706,0.892c-0.212-0.314-0.446-0.613-0.702-0.892c0.232,0.022,0.469,0.034,0.706,0.034
			C56.459,52.458,56.693,52.446,56.925,52.423z M57.299,34.07l2.184,4.146c-1.015-0.493-2.13-0.749-3.26-0.749
			c-0.237,0-0.474,0.013-0.706,0.035c0.884-0.969,1.497-2.153,1.779-3.433H57.299z M49.95,20.111l2.854,5.422
			c-1.902-0.781-4.043-0.739-5.914,0.116L49.95,20.111z M49.976,27.474c2.76,0,4.998,2.236,4.998,4.996s-2.238,4.997-4.998,4.997
			c-2.759,0-4.996-2.237-4.996-4.997S47.217,27.474,49.976,27.474z M49.976,40.824c-0.211-0.316-0.446-0.615-0.703-0.894
			c0.233,0.021,0.469,0.036,0.707,0.036s0.473-0.015,0.704-0.036C50.425,40.208,50.188,40.507,49.976,40.824z M50.684,49.997
			c-0.235-0.022-0.47-0.037-0.708-0.037c-0.236,0-0.474,0.015-0.707,0.037c0.258-0.28,0.495-0.578,0.707-0.895
			c0.213,0.316,0.447,0.614,0.703,0.895H50.684z M42.563,33.486c0.203,1.498,0.855,2.899,1.873,4.018
			c-0.231-0.022-0.468-0.036-0.707-0.036c-1.428,0-2.824,0.411-4.025,1.183L42.563,33.486z M43.729,39.966
			c2.76,0,4.997,2.236,4.997,4.997c0,2.759-2.237,4.996-4.997,4.996s-4.996-2.237-4.996-4.996
			C38.733,42.203,40.97,39.966,43.729,39.966z M44.438,52.421c-0.258,0.28-0.496,0.582-0.709,0.897
			c-0.213-0.315-0.449-0.617-0.708-0.897c0.234,0.022,0.47,0.036,0.708,0.036C43.969,52.458,44.205,52.444,44.438,52.421z
			 M36.235,44.924v0.039c0,1.862,0.699,3.658,1.957,5.033c-0.234-0.022-0.471-0.037-0.709-0.037c-1.937,0-3.797,0.753-5.189,2.1
			L36.235,44.924z M25.866,63.702l4.281-7.746c-0.614,2.993,0.652,6.059,3.201,7.746H25.866z M37.483,62.452
			c-2.758,0-4.996-2.237-4.996-4.997c0-2.759,2.238-4.997,4.996-4.997c2.76,0,4.997,2.238,4.997,4.997
			C42.48,60.214,40.243,62.452,37.483,62.452z M41.619,63.702c0.837-0.557,1.555-1.274,2.11-2.111
			c0.557,0.837,1.275,1.555,2.112,2.111H41.619z M49.976,62.452c-2.759,0-4.996-2.237-4.996-4.997c0-2.759,2.237-4.997,4.996-4.997
			c2.76,0,4.998,2.238,4.998,4.997C54.974,60.214,52.735,62.452,49.976,62.452z M54.11,63.702c0.838-0.557,1.555-1.271,2.112-2.107
			c0.554,0.834,1.268,1.551,2.1,2.107H54.11z M58.935,60.989c-1.951-1.951-1.951-5.114,0-7.065c1.951-1.953,5.115-1.954,7.066-0.003
			s1.953,5.116,0.002,7.066c-0.002,0.002-0.002,0.002-0.002,0.002C64.024,62.875,60.913,62.875,58.935,60.989z M66.614,63.702
			c0.415-0.278,0.802-0.594,1.152-0.947c1.258-1.25,2.025-2.908,2.168-4.676l2.078,3.953c-1.027,0.411-1.986,0.975-2.852,1.67
			H66.614z M84.72,70.428c1.112,4.701-1.795,9.412-6.494,10.525c-4.701,1.112-9.412-1.794-10.524-6.494
			c-0.534-2.257-0.149-4.632,1.065-6.604c2.537-4.111,7.924-5.387,12.033-2.852C82.775,66.22,84.184,68.172,84.72,70.428
			L84.72,70.428z"/>
		<path fill="#80714A" d="M80.019,68.972c-0.609,0.327-0.838,1.084-0.51,1.691c0,0.002,0,0.002,0,0.002
			c0.633,1.181,0.592,2.606-0.109,3.748c-1.088,1.761-3.396,2.308-5.157,1.221c-0.269-0.166-0.516-0.364-0.736-0.592
			c-0.446-0.526-1.233-0.593-1.76-0.146c-0.526,0.445-0.591,1.233-0.146,1.759c0.033,0.042,0.072,0.082,0.111,0.118
			c2.4,2.479,6.355,2.541,8.832,0.142c2.004-1.941,2.479-4.976,1.162-7.434C81.38,68.876,80.625,68.647,80.019,68.972z"/>
		<path fill="#80714A" d="M13.749,78.692H61.22c0.689,0,1.248-0.561,1.248-1.25v-7.496c0-0.689-0.559-1.248-1.248-1.248H13.749
			c-0.691,0-1.249,0.559-1.249,1.248v7.496C12.5,78.131,13.058,78.692,13.749,78.692z M52.476,71.196h7.494v4.998h-7.494V71.196z
			 M14.998,71.196h34.978v4.998H14.998V71.196z"/>
	</g>
</g>
</svg>
