<?xml version="1.0" encoding="utf-8"?>
<!-- Generator: Adobe Illustrator 16.0.0, SVG Export Plug-In . SVG Version: 6.00 Build 0)  -->
<!DOCTYPE svg PUBLIC "-//W3C//DTD SVG 1.1//EN" "http://www.w3.org/Graphics/SVG/1.1/DTD/svg11.dtd">
<svg version="1.1" id="Capa_1" xmlns="http://www.w3.org/2000/svg" xmlns:xlink="http://www.w3.org/1999/xlink" x="0px" y="0px"
	 width="100px" height="100px" viewBox="0 0 100 100" enable-background="new 0 0 100 100" xml:space="preserve">
<g>
	<g>
		<path fill="#80714A" d="M85.236,2.646c6.682,0,12.118,5.437,12.118,12.119v70.472c0,6.682-5.437,12.119-12.118,12.119H14.764
			c-6.682,0-12.118-5.437-12.118-12.119V14.764c0-6.682,5.437-12.119,12.118-12.119H85.236 M85.236,0H14.764
			C6.609,0,0,6.61,0,14.764v70.472C0,93.39,6.609,100,14.764,100h70.473C93.389,100,100,93.39,100,85.236V14.764
			C100,6.61,93.389,0,85.236,0L85.236,0z"/>
	</g>
	<g>
		<path fill="#80714A" d="M81.25,41.362V35c-0.006-4.83-3.92-8.744-8.75-8.749H55c-1.975,0.005-3.832,0.947-5,2.538
			c-1.17-1.591-3.025-2.533-5-2.538H27.498c-4.83,0.005-8.742,3.919-8.748,8.749v6.362c-2.84,0.475-5.154,2.537-5.955,5.302
			c-0.801,2.766,0.057,5.744,2.205,7.661V67.5c0,0.69,0.561,1.249,1.25,1.249h2.5V72.5c0,0.69,0.559,1.25,1.25,1.25h5
			c0.689,0,1.248-0.56,1.248-1.25V68.75H73.75V72.5c0,0.69,0.559,1.25,1.25,1.25h5c0.689,0,1.25-0.56,1.25-1.25V68.75h2.5
			c0.689,0,1.25-0.559,1.25-1.249V54.325c2.146-1.917,3.006-4.896,2.205-7.661C86.404,43.899,84.09,41.836,81.25,41.362z
			 M51.25,32.5c0-2.07,1.678-3.749,3.75-3.749h17.5c3.449,0.004,6.244,2.799,6.25,6.249v6.362c-3.604,0.613-6.244,3.733-6.25,7.389
			h-20c-0.426,0.004-0.85,0.081-1.25,0.23V32.5z M51.25,52.5c0-0.69,0.559-1.25,1.25-1.25h20.438
			c0.76,2.127,2.434,3.804,4.562,4.562v2.938H51.25V52.5z M21.248,35c0.006-3.45,2.801-6.245,6.25-6.249H45
			c2.072,0,3.748,1.679,3.748,3.749v16.481c-0.398-0.149-0.822-0.227-1.248-0.23H27.498c-0.006-3.655-2.645-6.775-6.25-7.389V35z
			 M48.748,52.5v6.25H22.5v-2.938c2.129-0.759,3.803-2.436,4.562-4.562H47.5C48.189,51.25,48.748,51.81,48.748,52.5z M15,48.75
			c0-2.763,2.238-5.001,5-5.001s5,2.238,5,5.001c0,2.761-2.238,4.999-5,4.999S15,51.511,15,48.75z M23.75,71.251h-2.502V68.75h2.502
			V71.251z M78.75,71.251h-2.5V68.75h2.5V71.251z M82.498,66.25H17.5V55.813c0.803,0.286,1.646,0.436,2.5,0.438v3.75
			c0,0.689,0.561,1.249,1.248,1.249H78.75c0.691,0,1.25-0.56,1.25-1.249v-3.75c0.852-0.003,1.697-0.152,2.498-0.438V66.25z
			 M80,53.75c-2.762,0-5-2.238-5-4.999c0-2.763,2.238-5.001,5-5.001s5,2.238,5,5.001C85,51.511,82.762,53.75,80,53.75z"/>
		<path fill="#80714A" d="M35,42.5c2.07,0,3.748-1.679,3.748-3.749C38.748,36.679,37.07,35,35,35c-2.072,0-3.75,1.68-3.75,3.751
			C31.25,40.821,32.928,42.5,35,42.5z M35,37.5c0.689,0,1.25,0.56,1.25,1.25S35.689,40,35,40c-0.691,0-1.25-0.56-1.25-1.25
			S34.309,37.5,35,37.5z"/>
		<path fill="#80714A" d="M65,42.5c2.07,0,3.75-1.679,3.75-3.749C68.75,36.679,67.07,35,65,35s-3.75,1.68-3.75,3.751
			C61.25,40.821,62.93,42.5,65,42.5z M65,37.5c0.689,0,1.25,0.56,1.25,1.25S65.689,40,65,40c-0.691,0-1.25-0.56-1.25-1.25
			S64.309,37.5,65,37.5z"/>
	</g>
</g>
</svg>
