<?xml version="1.0" encoding="utf-8"?>
<!-- Generator: Adobe Illustrator 16.0.0, SVG Export Plug-In . SVG Version: 6.00 Build 0)  -->
<!DOCTYPE svg PUBLIC "-//W3C//DTD SVG 1.1//EN" "http://www.w3.org/Graphics/SVG/1.1/DTD/svg11.dtd">
<svg version="1.1" id="Capa_1" xmlns="http://www.w3.org/2000/svg" xmlns:xlink="http://www.w3.org/1999/xlink" x="0px" y="0px"
	 width="100px" height="100px" viewBox="0 0 100 100" enable-background="new 0 0 100 100" xml:space="preserve">
<g>
	<g>
		<path fill="#80714A" d="M85.237,2.646c6.681,0,12.117,5.436,12.117,12.118v70.472c0,6.682-5.437,12.118-12.117,12.118H14.764
			c-6.682,0-12.118-5.436-12.118-12.118V14.765c0-6.682,5.437-12.118,12.118-12.118H85.237 M85.237,0H14.764
			C6.611,0,0,6.611,0,14.765v70.472C0,93.391,6.611,100,14.764,100h70.474C93.391,100,100,93.391,100,85.236V14.765
			C100,6.611,93.391,0,85.237,0L85.237,0z"/>
	</g>
	<g id="outline_9_">
		<path fill="#80714A" d="M13.751,81.875h4.999c0.69,0,1.249-0.558,1.249-1.25V42.346l8.068-9.22H32.5v28.965
			c-1.952,0.69-2.976,2.834-2.283,4.786c0.531,1.497,1.947,2.498,3.533,2.499h10.001c2.071-0.001,3.749-1.681,3.749-3.752
			c-0.002-1.588-1.003-3.003-2.5-3.533V33.126h10v36.465c-1.952,0.69-2.976,2.834-2.282,4.787c0.53,1.498,1.944,2.497,3.532,2.498
			h10.002C68.32,76.875,70,75.196,70,73.125c-0.002-1.588-1.003-3.003-2.5-3.533V33.126h4.433l8.068,9.22v38.279
			c0,0.692,0.559,1.25,1.249,1.25h5c0.691,0,1.251-0.558,1.251-1.25v-56.25c-0.003-3.45-2.801-6.246-6.251-6.25h-62.5
			c-3.45,0.004-6.246,2.8-6.249,6.25v56.25C12.501,81.317,13.059,81.875,13.751,81.875z M17.501,79.376H15v-2.5h2.501V79.376z
			 M19.999,38.549v-5.423h4.745L19.999,38.549z M43.751,66.876H33.75c-0.69,0-1.25-0.56-1.25-1.25c0-0.69,0.56-1.25,1.25-1.25
			h10.001c0.689,0,1.249,0.56,1.249,1.25C45,66.316,44.44,66.876,43.751,66.876z M42.501,61.876h-7.5v-28.75h7.5V61.876z
			 M66.252,74.377H56.25c-0.69,0-1.25-0.562-1.25-1.25c0-0.691,0.56-1.25,1.25-1.25h10.002c0.688,0,1.248,0.56,1.248,1.25
			C67.5,73.815,66.94,74.377,66.252,74.377z M65.001,69.376h-7.5v-36.25h7.5V69.376z M66.252,28.126c-0.691,0-1.251,0.56-1.251,1.25
			v1.25h-7.5v-1.25c0-0.69-0.56-1.25-1.251-1.25c-0.69,0-1.25,0.56-1.25,1.25v1.25H45v-1.25c0-0.69-0.56-1.25-1.249-1.25
			c-0.69,0-1.25,0.56-1.25,1.25v1.25h-7.5v-1.25c0-0.69-0.56-1.25-1.251-1.25c-0.69,0-1.25,0.56-1.25,1.25v1.25H19.999v-5h60.002v5
			H67.5v-1.25C67.5,28.686,66.94,28.126,66.252,28.126z M75.256,33.126h4.745v5.423L75.256,33.126z M85,79.376h-2.5v-2.5H85V79.376z
			 M15,24.375c0.002-2.07,1.682-3.748,3.75-3.75h62.5c2.07,0.002,3.748,1.68,3.75,3.75v50.001h-2.5V24.375
			c0-0.69-0.56-1.25-1.25-1.25h-62.5c-0.688,0-1.249,0.56-1.249,1.25v50.001H15V24.375z"/>
	</g>
</g>
</svg>
