<?xml version="1.0" encoding="utf-8"?>
<!-- Generator: Adobe Illustrator 16.0.0, SVG Export Plug-In . SVG Version: 6.00 Build 0)  -->
<!DOCTYPE svg PUBLIC "-//W3C//DTD SVG 1.1//EN" "http://www.w3.org/Graphics/SVG/1.1/DTD/svg11.dtd">
<svg version="1.1" id="Capa_1" xmlns="http://www.w3.org/2000/svg" xmlns:xlink="http://www.w3.org/1999/xlink" x="0px" y="0px"
	 width="100px" height="100px" viewBox="0 0 100 100" enable-background="new 0 0 100 100" xml:space="preserve">
<g>
	<g>
		<path fill="#80714A" d="M85.236,2.646c6.682,0,12.118,5.436,12.118,12.118v70.472c0,6.682-5.437,12.119-12.118,12.119H14.764
			c-6.682,0-12.118-5.437-12.118-12.119V14.764c0-6.682,5.437-12.118,12.118-12.118H85.236 M85.236,0H14.764
			C6.609,0,0,6.61,0,14.764v70.472C0,93.39,6.609,100,14.764,100h70.473C93.39,100,100,93.39,100,85.236V14.764
			C100,6.61,93.39,0,85.236,0L85.236,0z"/>
	</g>
	<g>
		<g>
			<path fill="#80714A" d="M23.249,62.522c4.281,5.812,10.696,9.686,17.833,10.769c0.532,0.081,1.071,0.143,1.609,0.192l0.014,0.001
				c4.924,0.699,9.903,0.911,14.869,0.627l2.276,3.094c1.494,2.027,2.783,4.2,3.849,6.482l0.607,1.195
				c0.637,1.254,1.797,2.165,3.166,2.486c0.129,0.031,0.258,0.057,0.387,0.076c1.257,0.192,2.537-0.124,3.559-0.879l4.228-3.112
				c2.131-1.569,2.588-4.568,1.019-6.7c-0.154-0.211-0.325-0.41-0.513-0.591l-1.007-0.979c-1.846-1.683-3.521-3.542-5.002-5.557
				l-2.276-3.092c1.751-4.668,3.042-9.495,3.854-14.413c0.002-0.01,0.004-0.019,0.006-0.027c1.605-7.602-0.115-15.527-4.731-21.779
				l-4.739-6.427c-8.892-12.079-25.892-14.663-37.972-5.771C12.205,27.01,9.621,44.011,18.514,56.089L23.249,62.522z M67.571,71.529
				c1.599,2.168,3.405,4.174,5.392,5.991l0.959,0.935c0.631,0.615,0.645,1.627,0.027,2.258c-0.061,0.062-0.127,0.12-0.197,0.171
				l-4.229,3.123c-0.375,0.283-0.858,0.382-1.314,0.267c-0.457-0.104-0.845-0.408-1.055-0.828l-0.638-1.252
				c-1.137-2.419-2.506-4.721-4.088-6.874l-2.83-3.844c-0.252-0.342-0.628-0.57-1.047-0.634c-0.152-0.023-0.309-0.023-0.462-0.002
				c-3.634,0.35-7.292,0.326-10.921-0.069l20.617-15.183c-0.713,3.588-1.788,7.095-3.207,10.468c-0.25,0.531-0.189,1.156,0.158,1.63
				L67.571,71.529z M26.175,20.691c10.662-7.83,25.65-5.553,33.505,5.092l4.734,6.434c3.975,5.374,5.528,12.162,4.286,18.729
				L42.475,70.252c-6.649-0.749-12.684-4.237-16.652-9.624l-4.736-6.435c-7.845-10.657-5.566-25.657,5.092-33.503H26.175z"/>
			<path fill="#80714A" d="M27.734,25.497l2.572-1.894l1.895,2.573l-2.573,1.895L27.734,25.497z"/>
			<path fill="#80714A" d="M31.521,30.645l2.572-1.895l1.895,2.572l-2.572,1.895L31.521,30.645z"/>
			<path fill="#80714A" d="M35.311,35.788l2.574-1.894l1.894,2.573l-2.573,1.894L35.311,35.788z"/>
			<path fill="#80714A" d="M39.098,40.935l2.572-1.894l1.895,2.573l-2.574,1.895L39.098,40.935z"/>
			<path fill="#80714A" d="M42.887,46.083l2.574-1.894l1.893,2.573l-2.571,1.893L42.887,46.083z"/>
			<path fill="#80714A" d="M46.676,51.226l2.572-1.895l1.895,2.574L48.568,53.8L46.676,51.226z"/>
			<path fill="#80714A" d="M50.461,56.375l2.573-1.894l1.895,2.571l-2.573,1.895L50.461,56.375z"/>
			<path fill="#80714A" d="M32.88,21.709l2.573-1.895l1.895,2.573l-2.574,1.895L32.88,21.709z"/>
			<path fill="#80714A" d="M36.668,26.855l2.573-1.894l1.894,2.572l-2.572,1.896L36.668,26.855z"/>
			<path fill="#80714A" d="M40.455,32l2.572-1.894l1.895,2.572l-2.573,1.895L40.455,32z"/>
			<path fill="#80714A" d="M44.243,37.147l2.574-1.894l1.894,2.572l-2.572,1.895L44.243,37.147z"/>
			<path fill="#80714A" d="M48.032,42.293l2.573-1.895l1.894,2.573l-2.573,1.894L48.032,42.293z"/>
			<path fill="#80714A" d="M51.821,47.443l2.573-1.894l1.894,2.572l-2.573,1.896L51.821,47.443z"/>
			<path fill="#80714A" d="M55.608,52.584l2.573-1.895l1.896,2.572l-2.575,1.895L55.608,52.584z"/>
			<path fill="#80714A" d="M50.748,24.427l2.573-1.895l1.894,2.573L52.643,27L50.748,24.427z"/>
			<path fill="#80714A" d="M41.812,23.07l2.574-1.896l1.894,2.574l-2.572,1.893L41.812,23.07z"/>
			<path fill="#80714A" d="M45.603,28.212l2.573-1.894l1.895,2.573l-2.572,1.895L45.603,28.212z"/>
			<path fill="#80714A" d="M49.39,33.359l2.573-1.895l1.895,2.573l-2.574,1.895L49.39,33.359z"/>
			<path fill="#80714A" d="M53.177,38.505l2.573-1.895l1.895,2.575l-2.573,1.892L53.177,38.505z"/>
			<path fill="#80714A" d="M54.536,29.573l2.574-1.895l1.894,2.573l-2.572,1.894L54.536,29.573z"/>
			<path fill="#80714A" d="M58.324,34.715l2.573-1.894l1.894,2.573l-2.572,1.895L58.324,34.715z"/>
			<path fill="#80714A" d="M56.966,43.651l2.574-1.894l1.894,2.572l-2.572,1.895L56.966,43.651z"/>
			<path fill="#80714A" d="M60.755,48.798l2.572-1.894l1.895,2.572l-2.573,1.896L60.755,48.798z"/>
			<path fill="#80714A" d="M22.587,29.286l2.573-1.895l1.894,2.573l-2.573,1.895L22.587,29.286z"/>
			<path fill="#80714A" d="M19.871,47.154l2.572-1.894l1.895,2.574l-2.573,1.893L19.871,47.154z"/>
			<path fill="#80714A" d="M23.659,52.3l2.573-1.895l1.895,2.573l-2.574,1.894L23.659,52.3z"/>
			<path fill="#80714A" d="M27.447,57.448l2.572-1.895l1.895,2.573l-2.573,1.895L27.447,57.448z"/>
			<path fill="#80714A" d="M31.236,62.592l2.572-1.895l1.895,2.572l-2.573,1.895L31.236,62.592z"/>
			<path fill="#80714A" d="M62.113,39.862l2.572-1.894l1.894,2.573l-2.572,1.894L62.113,39.862z"/>
			<path fill="#80714A" d="M21.229,38.22l2.574-1.895l1.894,2.573l-2.573,1.895L21.229,38.22z"/>
			<path fill="#80714A" d="M25.018,43.367l2.573-1.895l1.896,2.574l-2.574,1.894L25.018,43.367z"/>
			<path fill="#80714A" d="M28.804,48.513l2.573-1.896l1.894,2.574l-2.571,1.894L28.804,48.513z"/>
			<path fill="#80714A" d="M32.594,53.658l2.573-1.895l1.894,2.573l-2.572,1.894L32.594,53.658z"/>
			<path fill="#80714A" d="M36.381,58.805l2.574-1.895l1.894,2.573l-2.573,1.895L36.381,58.805z"/>
			<path fill="#80714A" d="M40.17,63.952l2.572-1.895l1.896,2.573l-2.573,1.895L40.17,63.952z"/>
			<path fill="#80714A" d="M26.375,34.43l2.573-1.894l1.895,2.574l-2.574,1.893L26.375,34.43z"/>
			<path fill="#80714A" d="M30.164,39.579l2.572-1.895l1.895,2.573l-2.572,1.895L30.164,39.579z"/>
			<path fill="#80714A" d="M33.953,44.725l2.572-1.895l1.895,2.573l-2.572,1.894L33.953,44.725z"/>
			<path fill="#80714A" d="M37.741,49.869l2.572-1.895l1.895,2.573l-2.573,1.895L37.741,49.869z"/>
			<path fill="#80714A" d="M41.529,55.014l2.572-1.894l1.895,2.573l-2.572,1.895L41.529,55.014z"/>
			<path fill="#80714A" d="M45.316,60.163l2.573-1.894l1.894,2.572l-2.573,1.896L45.316,60.163z"/>
		</g>
		<g>
			<circle fill="#ECF6F4" cx="67.417" cy="31.859" r="17.671"/>
			<path fill="#80714A" d="M67.416,12.5c-10.689,0-19.357,8.667-19.357,19.358s8.668,19.359,19.357,19.359
				c10.693,0,19.359-8.668,19.359-19.359C86.763,21.171,78.104,12.512,67.416,12.5z M51.579,31.858
				c-0.018-8.732,7.05-15.824,15.782-15.842c3.953-0.008,7.766,1.466,10.686,4.131c-2.205,0.32-4.445,0.314-6.648-0.018
				l-2.141-0.332c-6.66-1.175-13.01,3.27-14.187,9.927c-1.175,6.658,3.269,13.008,9.927,14.184c1.408,0.249,2.85,0.249,4.26,0
				l2.141-0.33c2.203-0.332,4.443-0.338,6.65-0.018c-6.452,5.886-16.453,5.428-22.34-1.023
				C53.048,39.619,51.573,35.809,51.579,31.858z M80.682,40.482c-3.22-0.747-6.551-0.877-9.818-0.384l-2.144,0.329
				c-4.737,0.875-9.287-2.255-10.164-6.993c-0.875-4.738,2.255-9.289,6.993-10.164c1.049-0.193,2.123-0.193,3.171,0l2.144,0.329
				c3.268,0.493,6.599,0.364,9.818-0.382C84.115,28.46,84.115,35.241,80.682,40.482z"/>
		</g>
	</g>
</g>
</svg>
