<?xml version="1.0" encoding="utf-8"?>
<!-- Generator: Adobe Illustrator 16.0.0, SVG Export Plug-In . SVG Version: 6.00 Build 0)  -->
<!DOCTYPE svg PUBLIC "-//W3C//DTD SVG 1.1//EN" "http://www.w3.org/Graphics/SVG/1.1/DTD/svg11.dtd">
<svg version="1.1" id="Capa_1" xmlns="http://www.w3.org/2000/svg" xmlns:xlink="http://www.w3.org/1999/xlink" x="0px" y="0px"
	 width="100px" height="100px" viewBox="0 0 100 100" enable-background="new 0 0 100 100" xml:space="preserve">
<g>
	<g>
		<path fill="#80714A" d="M85.237,2.646c6.681,0,12.117,5.436,12.117,12.118v70.472c0,6.682-5.437,12.119-12.117,12.119H14.763
			c-6.681,0-12.117-5.437-12.117-12.119V14.764c0-6.682,5.437-12.118,12.117-12.118H85.237 M85.237,0H14.763C6.61,0,0,6.61,0,14.764
			v70.472C0,93.39,6.61,100,14.763,100h70.475C93.39,100,100,93.39,100,85.236V14.764C100,6.61,93.39,0,85.237,0L85.237,0z"/>
	</g>
	<g>
		<path fill="#80714A" d="M65.001,28.123c0-3.797-3.079-6.875-6.875-6.875c-3.798,0-6.876,3.078-6.876,6.875v4.375h2.501v-4.375
			c0-2.417,1.959-4.375,4.375-4.375s4.373,1.958,4.373,4.375v8.125H37.501v-8.125c0-3.797-3.079-6.875-6.877-6.875
			c-3.795,0-6.874,3.078-6.874,6.875v4.375h2.501v-4.375c0-2.417,1.958-4.375,4.373-4.375c2.417,0,4.376,1.958,4.376,4.375v30.625
			H12.501v2.5H35v5.153c-1.455,0.198-2.876,0.597-4.223,1.186c-1.815,0.814-3.788,1.211-5.778,1.161
			c-1.987,0.051-3.965-0.347-5.779-1.161c-2.115-0.938-4.408-1.395-6.719-1.339v2.5c1.99-0.05,3.966,0.347,5.782,1.161
			c2.111,0.937,4.407,1.395,6.716,1.339c2.311,0.054,4.603-0.402,6.714-1.339c1.814-0.813,3.789-1.21,5.778-1.161
			c1.989-0.05,3.968,0.347,5.785,1.161c2.112,0.937,4.404,1.394,6.716,1.339c2.308,0.055,4.602-0.402,6.713-1.339
			c1.816-0.814,3.793-1.211,5.784-1.161c1.992-0.05,3.971,0.347,5.789,1.161c2.114,0.937,4.41,1.395,6.723,1.339
			c2.31,0.054,4.603-0.402,6.715-1.339c1.818-0.813,3.794-1.211,5.784-1.161v-2.5c-2.311-0.054-4.604,0.402-6.718,1.339
			c-1.816,0.814-3.792,1.211-5.781,1.161c-1.993,0.051-3.972-0.347-5.791-1.161c-1.342-0.585-2.76-0.982-4.209-1.183v-5.156H87.5
			v-2.5H65.001V28.123z M62.499,66.248h-0.01c-2.309-0.054-4.602,0.402-6.713,1.339c-1.816,0.814-3.794,1.211-5.784,1.161
			c-1.991,0.05-3.969-0.347-5.787-1.161c-2.109-0.936-4.398-1.393-6.704-1.339v-5h24.998V66.248z M62.499,58.748H37.501v-5h24.998
			V58.748z M62.499,51.248H37.501v-5h24.998V51.248z M62.499,43.748H37.501v-5h24.998V43.748z"/>
		<path fill="#80714A" d="M75.001,76.248c-1.993,0.05-3.972-0.347-5.791-1.161c-2.114-0.938-4.408-1.395-6.721-1.339
			c-2.309-0.055-4.602,0.402-6.713,1.339c-1.816,0.814-3.794,1.211-5.784,1.161c-1.991,0.05-3.969-0.347-5.787-1.161
			c-2.112-0.937-4.405-1.394-6.714-1.339c-2.31-0.055-4.602,0.402-6.714,1.339c-1.815,0.813-3.788,1.21-5.778,1.161
			c-1.989,0.05-3.965-0.347-5.779-1.161c-2.115-0.937-4.408-1.395-6.719-1.339v2.5c1.99-0.05,3.966,0.348,5.782,1.162
			c2.111,0.936,4.407,1.393,6.716,1.339c2.311,0.054,4.603-0.403,6.714-1.339c1.814-0.814,3.789-1.211,5.778-1.162
			c1.989-0.05,3.968,0.347,5.785,1.162c2.112,0.936,4.404,1.393,6.716,1.339c2.308,0.054,4.602-0.403,6.713-1.339
			c1.816-0.815,3.793-1.212,5.784-1.162c1.992-0.05,3.971,0.348,5.789,1.162c2.114,0.936,4.41,1.393,6.723,1.339
			c2.31,0.054,4.603-0.403,6.715-1.339c1.818-0.814,3.794-1.212,5.784-1.162v-2.5c-2.311-0.055-4.604,0.402-6.718,1.339
			C78.966,75.9,76.99,76.296,75.001,76.248z"/>
	</g>
</g>
</svg>
