<?xml version="1.0" encoding="utf-8"?>
<!-- Generator: Adobe Illustrator 16.0.0, SVG Export Plug-In . SVG Version: 6.00 Build 0)  -->
<!DOCTYPE svg PUBLIC "-//W3C//DTD SVG 1.1//EN" "http://www.w3.org/Graphics/SVG/1.1/DTD/svg11.dtd">
<svg version="1.1" id="Capa_1" xmlns="http://www.w3.org/2000/svg" xmlns:xlink="http://www.w3.org/1999/xlink" x="0px" y="0px"
	 width="100px" height="100px" viewBox="0 0 100 100" enable-background="new 0 0 100 100" xml:space="preserve">
<g>
	<g>
		<path fill="#80714A" d="M85.236,2.646c6.682,0,12.118,5.436,12.118,12.118v70.474c0,6.682-5.437,12.118-12.118,12.118H14.764
			c-6.682,0-12.118-5.436-12.118-12.118V14.763c0-6.682,5.437-12.118,12.118-12.118H85.236 M85.236,0H14.764C6.61,0,0,6.61,0,14.763
			v70.474C0,93.39,6.61,100,14.764,100h70.473C93.39,100,100,93.39,100,85.237V14.763C100,6.61,93.39,0,85.236,0L85.236,0z"/>
	</g>
	<g id="outline_10_">
		<path fill="#80714A" d="M49.998,33.75c-11.716,0-21.248,9.533-21.248,21.251c0,11.717,9.532,21.249,21.248,21.249
			c11.719,0,21.252-9.532,21.252-21.249C71.25,43.284,61.717,33.75,49.998,33.75z M63.75,55.001c0,7.593-6.157,13.749-13.752,13.749
			c-7.592,0-13.748-6.156-13.748-13.749c0-7.595,6.156-13.751,13.748-13.751C57.59,41.259,63.74,47.41,63.75,55.001z M65.441,49.937
			l2.468-0.495c1.121,3.621,1.121,7.496,0,11.115l-2.468-0.492C66.52,56.774,66.52,53.226,65.441,49.937z M49.998,73.751
			c-10.354,0.001-18.75-8.394-18.752-18.749c-0.001-10.354,8.393-18.751,18.748-18.752c7.288-0.002,13.916,4.222,16.995,10.828
			l-2.533,0.506c-4.096-7.985-13.89-11.139-21.874-7.044c-7.986,4.096-11.14,13.892-7.044,21.876
			c4.096,7.985,13.89,11.139,21.875,7.043c3.026-1.553,5.49-4.016,7.043-7.043l2.533,0.507
			C63.907,69.523,57.285,73.744,49.998,73.751z"/>
		<path fill="#80714A" d="M78.437,12.5H21.562c-2.242,0.002-4.06,1.819-4.062,4.062V86.25c0,0.69,0.56,1.25,1.249,1.25H81.25
			c0.689,0,1.25-0.56,1.25-1.25V16.563C82.497,14.32,80.68,12.502,78.437,12.5z M20,30h59.999v50.002H20V30z M79.999,16.563V27.5
			h-37.5V15h35.938C79.3,15.001,79.998,15.7,79.999,16.563z M21.562,15H40V27.5H20V16.563C20,15.7,20.698,15.001,21.562,15z
			 M79.999,85H20v-2.499h59.999V85z"/>
		<path fill="#80714A" d="M23.749,25H36.25c0.689,0,1.249-0.56,1.249-1.25v-2.5c-0.001-2.07-1.68-3.747-3.75-3.75h-7.5
			c-2.069,0.003-3.747,1.68-3.751,3.75v2.5C22.498,24.441,23.06,25,23.749,25z M24.999,21.25C25,20.56,25.56,20.001,26.249,20h7.5
			c0.69,0.001,1.249,0.56,1.25,1.25v1.25h-10V21.25z"/>
		<path fill="#80714A" d="M46.25,25h14.999c0.691,0,1.25-0.56,1.25-1.25V18.75c0-0.689-0.559-1.249-1.25-1.249H46.25
			c-0.69,0-1.251,0.56-1.251,1.249v5.001C44.999,24.441,45.56,25,46.25,25z M47.5,20h12.499v2.5H47.5V20z"/>
		<path fill="#80714A" d="M51.249,48.75c0-0.69-0.559-1.25-1.251-1.25c-4.139,0.005-7.494,3.36-7.499,7.501
			c0,0.69,0.56,1.249,1.251,1.249c0.689,0,1.249-0.559,1.249-1.249c0.003-2.762,2.24-4.998,4.999-5.001
			C50.69,50,51.249,49.441,51.249,48.75z"/>
		<path fill="#80714A" d="M56.249,53.75c-0.69,0-1.249,0.559-1.249,1.251c-0.004,2.758-2.239,4.996-5.002,4.999
			c-0.689,0-1.249,0.561-1.249,1.25s0.56,1.251,1.249,1.251c4.142-0.006,7.497-3.361,7.502-7.5
			C57.5,54.309,56.94,53.75,56.249,53.75z"/>
		<circle fill="#80714A" cx="66.25" cy="21.25" r="1.25"/>
		<circle fill="#80714A" cx="71.25" cy="21.25" r="1.25"/>
		<circle fill="#80714A" cx="76.249" cy="21.25" r="1.25"/>
	</g>
</g>
</svg>
