<?xml version="1.0" encoding="utf-8"?>
<!-- Generator: Adobe Illustrator 16.0.0, SVG Export Plug-In . SVG Version: 6.00 Build 0)  -->
<!DOCTYPE svg PUBLIC "-//W3C//DTD SVG 1.1//EN" "http://www.w3.org/Graphics/SVG/1.1/DTD/svg11.dtd">
<svg version="1.1" id="Capa_1" xmlns="http://www.w3.org/2000/svg" xmlns:xlink="http://www.w3.org/1999/xlink" x="0px" y="0px"
	 width="100px" height="100px" viewBox="0 0 100 100" enable-background="new 0 0 100 100" xml:space="preserve">
<g>
	<g>
		<path fill="#80714A" d="M85.236,2.646c6.682,0,12.118,5.436,12.118,12.118v70.474c0,6.682-5.437,12.118-12.118,12.118H14.764
			c-6.682,0-12.118-5.436-12.118-12.118V14.763c0-6.682,5.437-12.118,12.118-12.118H85.236 M85.236,0H14.764
			C6.611,0,0,6.61,0,14.763v70.474C0,93.39,6.611,100,14.764,100h70.473C93.391,100,100,93.39,100,85.237V14.763
			C100,6.61,93.391,0,85.236,0L85.236,0z"/>
	</g>
	<g id="outline_11_">
		<path fill="#80714A" d="M86.25,56.875h-12.5c-0.689,0-1.25,0.558-1.25,1.25v3.748h-0.537l-2.4-7.5h1.688
			c0.574,0,1.074-0.389,1.213-0.946l1.014-4.053H80c0.691,0,1.252-0.56,1.252-1.251v-5c0-0.688-0.561-1.25-1.252-1.25H59.102
			l1.596-6.378c0.617,0.306,1.367,0.052,1.674-0.567c0.086-0.173,0.129-0.361,0.129-0.553v-6.251c0-0.69-0.559-1.249-1.25-1.249
			h-7.5v-3.751c0-2.071-1.678-3.75-3.75-3.75c-2.07,0-3.75,1.679-3.75,3.75v3.751h-7.5c-0.691,0-1.25,0.559-1.25,1.249v5
			c0,0.689,0.559,1.251,1.25,1.251h0.275l1.875,7.498H20c-0.689,0-1.25,0.562-1.25,1.25v5c0,0.691,0.561,1.251,1.25,1.251h6.525
			l1.012,4.053c0.141,0.558,0.639,0.946,1.213,0.946h1.688l-2.4,7.5H27.5v-3.748c0-0.692-0.559-1.25-1.25-1.25h-12.5
			c-0.689,0-1.25,0.558-1.25,1.25v9.999c0,0.69,0.561,1.25,1.25,1.25h11.889l-3.078,9.619c-0.211,0.658,0.15,1.362,0.809,1.572
			c0.123,0.038,0.252,0.06,0.381,0.06H30c0.543,0,1.025-0.351,1.191-0.869l3.322-10.382h30.975l3.322,10.382
			c0.164,0.519,0.646,0.869,1.189,0.869h6.25c0.691,0,1.25-0.562,1.25-1.251c0-0.128-0.02-0.258-0.059-0.381l-3.078-9.619H86.25
			c0.691,0,1.25-0.56,1.25-1.25v-9.999C87.5,57.433,86.941,56.875,86.25,56.875z M70.273,51.875h-1.51l-0.801-2.501H70.9
			L70.273,51.875z M39.312,54.374h21.375l2.4,7.5H36.912L39.312,54.374z M34.287,61.874h-3.623l3.998-12.499h3.627L34.287,61.874z
			 M40.113,51.875l0.799-2.501h18.176l0.801,2.501H40.113z M62.795,52.758l-0.002-0.012l-1.08-3.372h3.625l4,12.499h-3.625
			L62.795,52.758z M60,29.374v2.5h-0.1l-3.5-2.5H60z M53.75,30.625v-0.072l1.85,1.321h-2.064
			C53.678,31.472,53.75,31.05,53.75,30.625z M48.75,23.125c0-0.69,0.561-1.25,1.25-1.25c0.691,0,1.25,0.56,1.25,1.25v7.5
			c0,0.69-0.559,1.249-1.25,1.249c-0.689,0-1.25-0.559-1.25-1.249V23.125z M58.4,34.375l-1.877,7.498H43.477l-1.875-7.498H58.4z
			 M40,31.874v-2.5h6.25v1.251c0,0.426,0.072,0.848,0.215,1.249H40z M21.25,46.875v-2.5h57.5v2.5H21.25z M29.727,51.875
			l-0.625-2.501h2.938l-0.801,2.501H29.727z M15,59.375h10v2.499H15V59.375z M29.088,78.125h-3.625l2.801-8.75h3.623L29.088,78.125z
			 M74.537,78.125h-3.625l-2.799-8.75h3.625L74.537,78.125z M85,66.875H15v-2.499h70V66.875z M85,61.874H75v-2.499h10V61.874z"/>
		<path fill="#80714A" d="M45,39.375h1.25c0.691,0,1.25-0.56,1.25-1.249c0-0.691-0.559-1.251-1.25-1.251H45
			c-0.689,0-1.25,0.56-1.25,1.251C43.75,38.815,44.311,39.375,45,39.375z"/>
		<path fill="#80714A" d="M51.25,39.375H55c0.691,0,1.25-0.56,1.25-1.249c0-0.691-0.559-1.251-1.25-1.251h-3.75
			c-0.689,0-1.25,0.56-1.25,1.251C50,38.815,50.561,39.375,51.25,39.375z"/>
	</g>
</g>
</svg>
