<?xml version="1.0" encoding="utf-8"?>
<!-- Generator: Adobe Illustrator 16.0.0, SVG Export Plug-In . SVG Version: 6.00 Build 0)  -->
<!DOCTYPE svg PUBLIC "-//W3C//DTD SVG 1.1//EN" "http://www.w3.org/Graphics/SVG/1.1/DTD/svg11.dtd">
<svg version="1.1" id="Capa_1" xmlns="http://www.w3.org/2000/svg" xmlns:xlink="http://www.w3.org/1999/xlink" x="0px" y="0px"
	 width="100px" height="100px" viewBox="0 0 100 100" enable-background="new 0 0 100 100" xml:space="preserve">
<g>
	<g>
		<path fill="#80714A" d="M85.237,2.646c6.681,0,12.117,5.436,12.117,12.118v70.472c0,6.682-5.437,12.119-12.117,12.119H14.763
			c-6.681,0-12.117-5.437-12.117-12.119V14.764c0-6.682,5.437-12.118,12.117-12.118H85.237 M85.237,0H14.763
			C6.61,0,0,6.611,0,14.764v70.472C0,93.39,6.61,100,14.763,100h70.475C93.39,100,100,93.39,100,85.236V14.764
			C100,6.611,93.39,0,85.237,0L85.237,0z"/>
	</g>
	<g>
		<g>
			<g>
				<path fill="#80714A" d="M72.867,44.259H24.594c-3.717,0.007-6.886,2.689-7.508,6.352h-0.114v1.271
					c-0.002,0.26,0.013,0.52,0.038,0.778c0.343,11.459,7.961,21.422,18.931,24.756l-2.404,8.419
					c-0.218,0.667,0.146,1.385,0.812,1.603c0.668,0.217,1.384-0.147,1.602-0.814c0.011-0.03,0.021-0.061,0.026-0.092l0.825-2.892
					h23.855l0.826,2.89c0.154,0.545,0.653,0.922,1.221,0.922c0.118,0,0.236-0.017,0.349-0.048c0.674-0.193,1.064-0.896,0.872-1.57
					l-2.405-8.417c10.969-3.335,18.586-13.295,18.929-24.754c0.026-0.26,0.041-0.52,0.041-0.78v-1.271h-0.114
					C79.752,46.949,76.582,44.266,72.867,44.259z M72.749,46.8h0.118c2.31,0.009,4.323,1.574,4.9,3.811h-5.75L72.749,46.8z
					 M65.282,46.8h4.882l-0.729,3.811h-4.883L65.282,46.8z M64.069,53.153h4.88l-0.73,3.811h-4.88L64.069,53.153z M57.817,46.8
					h4.879l-0.725,3.811h-4.887L57.817,46.8z M56.604,53.153h4.88l-0.731,3.811h-4.886L56.604,53.153z M50.351,46.8h4.88
					l-0.728,3.811H49.62L50.351,46.8z M49.137,53.153h4.879l-0.73,3.811h-4.884L49.137,53.153z M42.884,46.8h4.879l-0.725,3.811
					h-4.887L42.884,46.8z M41.669,53.153h4.876l-0.73,3.811h-4.881L41.669,53.153z M35.416,46.8h4.88l-0.725,3.811h-4.886
					L35.416,46.8z M34.204,53.153h4.872l-0.731,3.811h-4.878L34.204,53.153z M27.951,46.8h4.878l-0.726,3.811h-4.885L27.951,46.8z
					 M26.735,53.153h4.882l-0.731,3.811h-4.885L26.735,53.153z M24.594,46.8h0.77l-0.73,3.811h-4.94
					C20.27,48.375,22.284,46.809,24.594,46.8z M24.145,53.153L23.44,56.82c-1.831-0.434-3.274-1.846-3.748-3.667H24.145z
					 M37.528,81.1l0.726-2.541h20.951l0.726,2.541H37.528z M53.811,76.019H43.648C32.771,76,23.245,68.718,20.375,58.226
					c1.171,0.778,2.533,1.217,3.938,1.264c0.05,0.008,0.102,0.013,0.152,0.014c0.011,0,0.019,0,0.029,0c0.033,0,0.066,0,0.1,0
					h48.272c1.5,0.001,2.969-0.443,4.217-1.277C74.215,68.718,64.689,76,53.811,76.019z M72.867,56.963H70.8l0.736-3.811h6.237
					C77.194,55.39,75.178,56.958,72.867,56.963z"/>
				<path fill="#80714A" d="M81.759,34.097H70.325v-5.081h-7.621v5.081h-2.668c-0.698-3.438-4.051-5.659-7.488-4.961
					c-2.5,0.508-4.454,2.461-4.962,4.961h-2.667v-5.081h-7.622v5.081h-2.669c-0.697-3.438-4.049-5.659-7.488-4.961
					c-2.499,0.508-4.453,2.461-4.961,4.961h-2.667c-0.701,0-1.27,0.568-1.27,1.271c0,0.701,0.568,1.27,1.27,1.27h2.667
					c0.698,3.438,4.052,5.659,7.49,4.961c2.499-0.508,4.451-2.461,4.959-4.961h2.669v5.081h7.622v-5.081h2.667
					c0.699,3.438,4.052,5.659,7.489,4.961c2.5-0.508,4.453-2.461,4.961-4.961h2.668v5.081h7.621v-5.081h11.434
					c0.701,0,1.271-0.568,1.271-1.27C83.029,34.666,82.46,34.097,81.759,34.097z M28.405,39.178c-2.106,0-3.812-1.706-3.812-3.811
					c0-2.105,1.705-3.812,3.812-3.812c2.104,0,3.81,1.706,3.81,3.812C32.215,37.472,30.509,39.178,28.405,39.178z M42.378,39.178
					h-2.541v-7.622h2.541V39.178z M53.811,39.178c-2.104,0-3.811-1.706-3.811-3.811c0-2.105,1.707-3.812,3.811-3.812
					c2.106,0,3.812,1.706,3.812,3.812C57.623,37.472,55.917,39.178,53.811,39.178z M67.786,39.178h-2.541v-7.622h2.541V39.178z"/>
				<path fill="#80714A" d="M29.42,21.393L27.351,24.5c-0.39,0.582-0.235,1.372,0.349,1.762c0.583,0.389,1.372,0.232,1.762-0.352
					h0.001l2.54-3.812c0.284-0.427,0.284-0.983,0-1.41l-2.072-3.105L32,14.476c0.389-0.584,0.23-1.373-0.353-1.762
					c-0.584-0.39-1.373-0.232-1.762,0.352l-2.54,3.811c-0.285,0.427-0.285,0.983,0,1.411L29.42,21.393z"/>
				<path fill="#80714A" d="M42.124,21.393L40.053,24.5c-0.39,0.582-0.232,1.372,0.351,1.762c0.583,0.389,1.372,0.232,1.762-0.352
					l0,0l2.539-3.812c0.285-0.427,0.285-0.983,0-1.41l-2.072-3.105l2.071-3.106c0.389-0.584,0.231-1.373-0.352-1.762
					c-0.584-0.39-1.373-0.232-1.764,0.352l-2.54,3.811c-0.284,0.427-0.284,0.983,0,1.411L42.124,21.393z"/>
				<path fill="#80714A" d="M54.828,21.393l-2.07,3.106c-0.391,0.582-0.234,1.372,0.349,1.762c0.584,0.389,1.373,0.232,1.762-0.352
					l0,0l2.541-3.812c0.284-0.427,0.284-0.983,0-1.41l-2.074-3.105l2.07-3.106c0.391-0.584,0.233-1.373-0.351-1.762
					c-0.584-0.39-1.373-0.232-1.763,0.352l-2.54,3.811c-0.285,0.427-0.285,0.983,0,1.411L54.828,21.393z"/>
				<path fill="#80714A" d="M66.262,21.393L64.19,24.5c-0.391,0.582-0.234,1.372,0.35,1.762c0.583,0.389,1.371,0.232,1.762-0.352
					l0,0l2.54-3.812c0.285-0.427,0.285-0.983,0-1.41l-2.073-3.105l2.07-3.106c0.391-0.584,0.232-1.373-0.352-1.762
					c-0.584-0.39-1.372-0.232-1.762,0.352l-2.54,3.811c-0.285,0.427-0.285,0.983,0,1.411L66.262,21.393z"/>
			</g>
		</g>
	</g>
</g>
</svg>
