<?xml version="1.0" encoding="utf-8"?>
<!-- Generator: Adobe Illustrator 16.0.0, SVG Export Plug-In . SVG Version: 6.00 Build 0)  -->
<!DOCTYPE svg PUBLIC "-//W3C//DTD SVG 1.1//EN" "http://www.w3.org/Graphics/SVG/1.1/DTD/svg11.dtd">
<svg version="1.1" id="Capa_1" xmlns="http://www.w3.org/2000/svg" xmlns:xlink="http://www.w3.org/1999/xlink" x="0px" y="0px"
	 width="100px" height="100px" viewBox="0 0 100 100" enable-background="new 0 0 100 100" xml:space="preserve">
<g>
	<g>
		<path fill="#80714A" d="M85.236,2.646c6.682,0,12.118,5.436,12.118,12.118v70.474c0,6.682-5.437,12.118-12.118,12.118H14.764
			c-6.682,0-12.118-5.436-12.118-12.118V14.763c0-6.682,5.437-12.118,12.118-12.118H85.236 M85.236,0H14.764
			C6.609,0,0,6.61,0,14.763v70.474C0,93.39,6.609,100,14.764,100h70.473C93.39,100,100,93.39,100,85.237V14.763
			C100,6.61,93.39,0,85.236,0L85.236,0z"/>
	</g>
	<g id="outline_12_">
		<path fill="#80714A" d="M64.062,12.5H35.938c-2.588,0.002-4.684,2.1-4.688,4.687V85c0.001,1.379,1.119,2.498,2.5,2.5h32.5
			c1.381-0.002,2.499-1.121,2.5-2.5V17.186C68.748,14.599,66.65,12.501,64.062,12.5z M33.75,40h32.5V75h-32.5V40z M35.938,15h28.125
			c1.209,0,2.188,0.979,2.188,2.187V37.5h-32.5V17.186C33.752,15.979,34.73,15,35.938,15z M66.25,85h-32.5v-7.5h32.5l0.002,7.5
			H66.25z"/>
		<path fill="#80714A" d="M37.5,34.999h5c0.691,0,1.25-0.558,1.25-1.249c0-0.69-0.559-1.25-1.25-1.25h-5
			c-0.691,0-1.25,0.56-1.25,1.25C36.25,34.441,36.809,34.999,37.5,34.999z"/>
		<path fill="#80714A" d="M42.5,42.5h-5c-0.691,0-1.25,0.558-1.25,1.25c0,0.69,0.559,1.25,1.25,1.25h5c0.691,0,1.25-0.56,1.25-1.25
			C43.75,43.057,43.191,42.5,42.5,42.5z"/>
		<path fill="#80714A" d="M62.5,80h-25c-0.691,0-1.25,0.559-1.25,1.25c0,0.689,0.559,1.25,1.25,1.25h25
			c0.691,0,1.25-0.561,1.25-1.25C63.75,80.559,63.191,80,62.5,80z"/>
	</g>
</g>
</svg>
