<?xml version="1.0" encoding="utf-8"?>
<!-- Generator: Adobe Illustrator 16.0.0, SVG Export Plug-In . SVG Version: 6.00 Build 0)  -->
<!DOCTYPE svg PUBLIC "-//W3C//DTD SVG 1.1//EN" "http://www.w3.org/Graphics/SVG/1.1/DTD/svg11.dtd">
<svg version="1.1" id="Capa_1" xmlns="http://www.w3.org/2000/svg" xmlns:xlink="http://www.w3.org/1999/xlink" x="0px" y="0px"
	 width="32px" height="32px" viewBox="0 0 32 32" enable-background="new 0 0 32 32" xml:space="preserve">
<g>
	<defs>
		<circle id="SVGID_1_" cx="16" cy="16.001" r="16"/>
	</defs>
	<clipPath id="SVGID_2_">
		<use xlink:href="#SVGID_1_"  overflow="visible"/>
	</clipPath>
	<g clip-path="url(#SVGID_2_)">
		<path fill-rule="evenodd" clip-rule="evenodd" fill="#2D72B9" d="M7.677,8.222l-3.014,3.569l1.37,0.714L-9.854,33.562h-3.697
			c0,0,0.891-2.586-0.137-2.855s-1.37-3.302-0.48-4.551c0.892-1.249-0.752-5.084,0.207-6.78c0.958-1.696,3.561-2.588,4.107-4.373
			c0.548-1.784,0.89-5.442,2.739-6.245c1.85-0.804,6.643-2.41,8.012-4.373C2.267,2.421,3.568,2.243,5.485,2.6
			s0.89-2.855,4.656-2.498c3.767,0.356,35.882-0.536,35.882-0.536s0.617-1.784,1.438-1.427c0.822,0.357,0,2.141,1.507,2.319
			c1.506,0.179,1.78-1.427,3.423-0.535c1.645,0.893,0.138,1.963,1.507,2.498c1.37,0.536,2.945-0.713,3.767,0.179
			c0.822,0.892,2.465,1.963,3.424,1.428c0.959-0.536,0.821-1.785,1.917-1.428s1.165,1.963,3.63,1.606S70.06,1.53,68.827,1.53
			s-2.465-1.071-1.644-1.785c0.821-0.714,4.52,0.357,5.067-0.536c0.548-0.892,2.533-1.427,5.41-0.535
			c2.875,0.892,4.04,2.499,4.451,1.963c0.41-0.535,1.917-1.249,2.465,0.357c0.547,1.606-5.273,3.034-6.916,2.677
			c-1.645-0.357-5.548,0-5.958,1.07c-0.411,1.071-1.78,0.802-1.78,2.32c0,1.517-2.876-0.982-2.876,0.178s-1.644,1.696,1.917,2.41
			s1.026,2.32,3.561,2.498c2.534,0.179,3.767-1.606,4.862-1.784c1.096-0.179,1.369,2.855,2.602,2.677
			c1.232-0.179,3.493-2.142,4.452-1.25c0.958,0.892,4.656,2.23,4.107,6.067c-0.547,3.837-0.615,8.922-3.834,11.153
			s-19.104,5.622-20.133,4.729c-1.027-0.892-30.472-5.889-32.868-10.797c-2.397-4.908-5.685-9.369-5.685-9.369l-2.465-0.535
			l1.78-1.963l-4.999-6.514l-4.108,4.729l1.231,1.249l-4.792,4.64l-1.302-1.249H8.909l1.643-2.499L7.677,8.222z"/>
		<path fill-rule="evenodd" clip-rule="evenodd" fill="#18A85A" d="M9.244,16.322c0,0-1.394-0.116-1.278,0.813
			c0.117,0.929,0.657,1.626-0.115,1.742s-1.47,0.541-1.47,0.541l0.813,0.581c-0.465,0.349-1.278,0.581-1.278,0.581l-0.231,1.278
			l-1.278,0.232l0.813,1.278h0.929l-0.232,1.469l-1.277-0.232l-0.232,1.045h-2.05l1.354,0.93L3.129,27.74H2.008l0.54,1.162
			l-0.889,0.116l0.232,1.004l0.581,1.395c0,0,1.586-0.232,1.469,0.464c-0.115,0.697-2.05,1.045-2.398,0.581
			c-0.349-0.464-0.812-2.323-0.812-2.323l-0.349,1.394l-0.232,1.045l-1.162,0.465v1.161l-0.349,1.237l-0.115,1.277l-0.581,1.046
			l-0.772,0.581l-0.581,1.354l0.116,1.626l-1.51,0.464l0.93,0.465l0.349,1.045l-0.93,0.813c0,0,0.697,1.121,1.045,1.121
			c0.349,0,2.747-0.929,3.444,0.116c0.697,1.045,0,2.671-1.046,2.555c-1.045-0.116-0.889-1.742-2.631-1.626
			c-1.742,0.116-2.903-0.232-3.252,0.929c-0.349,1.161,0.93,1.586,0.465,2.515c-0.465,0.93-1.354,1.278-1.354,1.278l0.116,2.555
			h7.469c0,0,0,2.864,0.813,2.748c0.812-0.116,2.207-0.348,1.51,0.349c-0.697,0.697-2.556,0-2.672,0.697
			c-0.116,0.696-0.813,1.857-0.813,1.857l0.813,1.121l-1.277,0.581v1.161c0.58,0.581-0.581,1.626-0.581,1.626l-1.005,0.465
			c0,0-0.812-1.005-1.277,0.116s1.277,1.701,0.232,2.515s-2.207-0.232-2.439,0.929c-0.232,1.162,0.465,1.627,0.465,1.627l-0.93,0.58
			l0.349,1.237l-0.772,0.349l-0.116,0.93l0.772,0.929l-0.656,1.278l0.116,1.121L-8.249,76.7h-0.696l-0.697,0.929l1.858,1.278
			c0,0-0.389,1.005,0.424,2.166c0.813,1.161,2.323,3.02,2.323,3.02l1.511,0.581c0,0,1.934-0.232,2.862-0.812
			c0.93-0.581,0.813-2.945-0.116-3.369c-0.929-0.424,0.697-1.354,0.697-1.354s0.697-2.828,0-3.484s-3.137-1.236-1.975-1.701
			c1.161-0.465,1.626-0.465,1.626-0.465l-0.116-1.975l1.975-0.58l0.697-1.238l2.166-0.232l1.626-1.394l0.93,0.697l2.05,0.929
			l1.859,0.117l1.161,0.539l1.236,0.813l0.93-0.581l0.581-1.004l0.929,0.115l1.162-0.348l0.813-0.93l-1.046-0.697l0.232-0.929
			l1.005-0.813l-0.308-1.469l-0.813-1.046h-1.278l0.465-1.975c0,0-2.166,0.657-3.443-1.277c-1.278-1.934,0.231-6.191-0.93-6.423
			s-2.363-0.075-3.253,0.581c-0.888,0.656-1.277-0.465-0.464-0.93c0.812-0.465,9.717-6.58,9.717-6.58l12.422,11.882h4.025
			l-0.349-2.206c0,0-1.47,0.232-1.354-0.696c0.116-0.93,1.742-2.865,0.465-2.98c-1.278-0.116-2.323,0-2.323,0l-1.046-0.93
			l-0.231-1.045l-0.93-0.116l-0.54,0.929l-0.348-0.929v-0.813l-0.349-0.889l-0.116-1.162l-0.93-0.813l-0.813-0.349l-0.929,0.697
			l-0.232,1.045l-1.121,0.813c0,0-1.975,0.116-2.207-1.975c-0.232-2.09-0.464-3.56-0.464-3.56l-1.046-0.813l-1.469-1.278
			l-1.511-1.277l-0.232-1.005l8.05-6h3.484l0.116-0.929l-1.394-1.277l2.747-2.05l4.257,2.979l2.439-1.858l7.51,6.58l2.979-2.207
			l4.258,4.298c0,0-2.091,1.004-1.162,2.398c0.93,1.394,3.949,1.51,3.949,1.51l6.191-5.302l2.672,3.096l7.817-0.232
			c0,0,0.737-2.747-1.354-2.863s-2.439-0.232-2.672-1.394s-0.424-0.349-2.398-0.116s-1.858-0.621-0.93-1.162
			c0.93-0.54,1.47-2.166,1.47-2.166l0.697-0.697l1.045-0.116c-0.696-0.581-1.742-1.278-1.742-1.278l-0.349-1.045l1.395-0.656
			l1.626-0.581l1.045-0.581l1.237-1.045c0,0-2.747,0-3.444-0.232c-0.696-0.232-2.166-1.51-2.166-1.51l1.354-0.889
			c0,0-4.142,0.465-4.489-0.116c-0.349-0.581,1.045-1.742,1.045-1.742l-1.161-0.697l1.857-0.581c0,0,1.162-0.622,0.465-1.161
			c-0.696-0.541-1.742,0-1.742,0l-1.975-0.349c0,0-1.045-0.192-0.115-0.773c0.929-0.581,2.322-0.929,2.322-0.929v-1.394
			c0,0-1.045,0.116-1.626-0.116c-0.581-0.232-1.045-0.273-0.581-1.394c0.465-1.121-0.115-1.237-0.115-1.237l-0.773-0.581
			l0.116-0.813l-1.161,0.697l-1.162-0.929l0.349-1.742L55.108,9.51c0,0-0.465-0.191-0.93-1.004
			c-0.465-0.813-0.812,1.353-0.812,1.353l-0.309,1.626l-0.58,1.278c0,0-0.232,0.929-0.813,0.929s-1.858-1.394-1.858-1.394
			l-0.349-2.09l1.046-1.046l-1.627-0.772l-1.237-0.349l2.167-0.813l-2.051-0.116l-1.161-0.349l0.813-1.162l1.005-0.348l-1.818-0.116
			l-1.045-3.212l-0.581,3.212l-1.626,1.278l0.232,1.161l-1.005,0.581h-1.975l-1.162,0.697l0.697,0.772l1.161,0.581l0.581,1.045
			c-0.813,0.349-1.626,0.116-1.626,0.116c-0.232,0.581,0.581,0.813,0.581,0.813l0.464,0.813l-1.277,0.697
			c-0.232,0.348,0.465,0.889,0.465,0.889l0.812,0.581l0.465,1.161l-0.116,1.045l-1.626,0.349l-0.349-0.697l-0.812-1.277L38.62,14.58
			l-1.121,0.697l-1.161-2.398l-0.349,2.167c-1.162,0.581-0.581,1.394-0.581,1.394L35.292,17.6l-0.581,1.161h-1.742l1.046,1.237
			l-0.465,0.697l-1.354-0.116l-0.116,1.743v1.626l-1.045,0.656l-1.395,0.116l1.975,0.929l1.046,1.162l-0.813,0.581l-1.045-0.116
			v0.697l-1.046-0.349l-0.812-1.045l-0.813,0.464l-1.585,0.349l-0.697-0.232L25.5,26.114l0.232-1.045l0.813-0.465l-1.511-0.308
			l0.581-1.162l-0.465-1.162l-1.277,0.116l-0.465-0.929l0.813-1.162c0.116-0.581-1.162-0.464-1.162-0.464l-0.308-1.237l0.656-0.813
			l-1.121-0.232l-0.465-1.51l-0.812,0.116l-0.581-2.167l-0.464-1.394l-0.232,2.515l-1.278,0.813l-0.888,1.626l-0.581,0.929
			l1.353,1.237l-1.004,2.207l-1.627,0.464c0,0-0.232,0.581,0.465,1.162c0.697,0.581-0.232,1.045-0.232,1.045l-1.51,1.237
			l-0.697-1.585l-0.581-1.045l0.349-1.045l-1.817-0.581l-0.116-1.394l-0.812-1.586l1.045-0.581l-1.51-0.813L9.244,16.322z"/>
		<polygon fill-rule="evenodd" clip-rule="evenodd" fill="#2D72B9" points="29.76,34.99 36.596,30.469 41.698,35.302 38.144,33.743 
			32.211,38.265 		"/>
		<polygon fill-rule="evenodd" clip-rule="evenodd" fill="#2D72B9" points="28.759,32.409 30.38,31.006 32.572,32.253 
			29.735,29.202 27.212,30.85 		"/>
	</g>
</g>
</svg>
