<?xml version="1.0" encoding="utf-8"?>
<!-- Generator: Adobe Illustrator 16.0.0, SVG Export Plug-In . SVG Version: 6.00 Build 0)  -->
<!DOCTYPE svg PUBLIC "-//W3C//DTD SVG 1.1//EN" "http://www.w3.org/Graphics/SVG/1.1/DTD/svg11.dtd">
<svg version="1.1" id="Capa_1" xmlns="http://www.w3.org/2000/svg" xmlns:xlink="http://www.w3.org/1999/xlink" x="0px" y="0px"
	 width="32px" height="24px" viewBox="0 0 32 24" enable-background="new 0 0 32 24" xml:space="preserve">
<path fill="#80714A" d="M27.313,23.314c-1.218,1.218-3.01,1.402-4.002,0.41L4.276,4.688c-0.992-0.992-0.809-2.784,0.41-4.002l0,0
	c1.219-1.219,3.01-1.402,4.002-0.41l19.035,19.036C28.716,20.304,28.532,22.095,27.313,23.314L27.313,23.314z"/>
<path fill="#80714A" d="M27.313,0.687c1.172,1.171,1.317,2.925,0.325,3.917L8.604,23.639c-0.992,0.993-2.746,0.847-3.917-0.325l0,0
	c-1.172-1.172-1.317-2.925-0.325-3.917L23.396,0.361C24.389-0.631,26.142-0.485,27.313,0.687L27.313,0.687z"/>
</svg>
