<?xml version="1.0" encoding="utf-8"?>
<!-- Generator: Adobe Illustrator 16.0.0, SVG Export Plug-In . SVG Version: 6.00 Build 0)  -->
<!DOCTYPE svg PUBLIC "-//W3C//DTD SVG 1.1//EN" "http://www.w3.org/Graphics/SVG/1.1/DTD/svg11.dtd">
<svg version="1.1" id="Capa_1" xmlns="http://www.w3.org/2000/svg" xmlns:xlink="http://www.w3.org/1999/xlink" x="0px" y="0px"
	 width="100px" height="100px" viewBox="0 0 100 100" enable-background="new 0 0 100 100" xml:space="preserve">
<g>
	<g>
		<path fill="#ECF6F4" d="M23.382,25.577l23.113,23.108c0.935,0.938,2.178,1.454,3.499,1.457h0.003c1.324,0,2.57-0.519,3.508-1.457
			l23.113-23.108c0.217-0.217,0.487-0.324,0.769-0.373c-1.523-0.933-3.319-1.493-5.255-1.493H27.868c-1.936,0-3.73,0.56-5.255,1.493
			C22.895,25.253,23.166,25.36,23.382,25.577z"/>
		<path fill="#ECF6F4" d="M79.055,26.462c0.04,0.414-0.081,0.838-0.396,1.155L55.546,50.726c-1.485,1.485-3.455,2.302-5.549,2.302
			h-0.006c-2.091-0.002-4.058-0.82-5.537-2.302L21.343,27.617c-0.316-0.317-0.438-0.741-0.397-1.155
			C19.13,28.192,18,30.593,18,33.253v26.529c0,5.27,4.418,9.536,9.868,9.536h44.264c5.45,0,9.868-4.266,9.868-9.536V33.253
			C82,30.593,80.87,28.192,79.055,26.462z"/>
	</g>
</g>
</svg>
