<?xml version="1.0" encoding="utf-8"?>
<!-- Generator: Adobe Illustrator 16.0.0, SVG Export Plug-In . SVG Version: 6.00 Build 0)  -->
<!DOCTYPE svg PUBLIC "-//W3C//DTD SVG 1.1//EN" "http://www.w3.org/Graphics/SVG/1.1/DTD/svg11.dtd">
<svg version="1.1" id="Capa_1" xmlns="http://www.w3.org/2000/svg" xmlns:xlink="http://www.w3.org/1999/xlink" x="0px" y="0px"
	 width="100px" height="100px" viewBox="0 0 100 100" enable-background="new 0 0 100 100" xml:space="preserve">
<path fill="#ECF6F4" d="M44.669,54.408l5.945,11.976c0,0,1.363,2.423,2.244,2.271c1.237-0.213,1.048-2.131,1.85-3.48
	c0.857-1.439,1.332-1.664,3.818-3.733c1.959-1.636,1.467-1.293,2.361-0.613c0.795,0.607,9.569,9.941,11.434,11.965
	c0.228,0.248-0.142,1.136-0.142,1.136s-3.117,4.79-10.828,7.09c-6.455,1.934-5.559,0.838-9.891-1.811
	C39.178,71.703,32.8,58.669,32.8,58.669l0.084-0.073c0,0-6.52-12.96-5.068-27.284c0.514-5.052-0.903-4.999,4.54-8.971
	c6.497-4.746,12.195-4.333,12.195-4.333s0.931,0.242,0.992,0.577c0.486,2.707,2.614,15.341,2.614,16.339
	c0,1.122,0.568,0.939-1.917,1.512c-3.157,0.725-3.618,0.967-5.288,0.779c-1.558-0.177-2.966-1.487-3.888-0.632
	c-0.652,0.61,0.449,3.16,0.449,3.16l5.946,11.982L44.669,54.408z"/>
</svg>
