<?xml version="1.0" encoding="utf-8"?>
<!-- Generator: Adobe Illustrator 16.0.0, SVG Export Plug-In . SVG Version: 6.00 Build 0)  -->
<!DOCTYPE svg PUBLIC "-//W3C//DTD SVG 1.1//EN" "http://www.w3.org/Graphics/SVG/1.1/DTD/svg11.dtd">
<svg version="1.1" id="Capa_1" xmlns="http://www.w3.org/2000/svg" xmlns:xlink="http://www.w3.org/1999/xlink" x="0px" y="0px"
	 width="32px" height="24px" viewBox="0 0 32 24" enable-background="new 0 0 32 24" xml:space="preserve">
<path fill="#80714A" d="M32,3c0,1.657-1.137,3-2.54,3H2.54C1.137,6,0,4.657,0,3l0,0c0-1.657,1.137-3,2.54-3h26.92
	C30.863,0,32,1.343,32,3L32,3z"/>
<path fill="#80714A" d="M32,21c0,1.657-1.137,3-2.54,3H2.54C1.137,24,0,22.657,0,21l0,0c0-1.657,1.137-3,2.54-3h26.92
	C30.863,18,32,19.343,32,21L32,21z"/>
</svg>
