<?xml version="1.0" encoding="utf-8"?>
<!-- Generator: Adobe Illustrator 16.0.0, SVG Export Plug-In . SVG Version: 6.00 Build 0)  -->
<!DOCTYPE svg PUBLIC "-//W3C//DTD SVG 1.1//EN" "http://www.w3.org/Graphics/SVG/1.1/DTD/svg11.dtd">
<svg version="1.1" id="Capa_1" xmlns="http://www.w3.org/2000/svg" xmlns:xlink="http://www.w3.org/1999/xlink" x="0px" y="0px"
	 width="517.693px" height="183.03px" viewBox="0 0 517.693 183.03" enable-background="new 0 0 517.693 183.03"
	 xml:space="preserve">
<g>
	<path fill-rule="evenodd" clip-rule="evenodd" fill="#2D72B9" d="M46.026,20.855l-6.203,7.348l2.819,1.469L9.936,73.025H2.323
		c0,0,1.834-5.326-0.282-5.878c-2.116-0.552-2.821-6.798-0.988-9.37c1.834-2.572-1.549-10.469,0.424-13.96
		c1.974-3.492,7.331-5.329,8.458-9.002c1.127-3.673,1.831-11.203,5.639-12.857c3.807-1.655,13.675-4.961,16.495-9.003
		c2.819-4.041,5.499-4.408,9.446-3.673s1.831-5.878,9.586-5.143c7.754,0.735,73.872-1.102,73.872-1.102s1.27-3.674,2.961-2.939
		c1.692,0.735,0,4.408,3.102,4.776c3.101,0.367,3.665-2.939,7.048-1.102c3.384,1.836,0.282,4.041,3.102,5.143
		s6.062-1.47,7.754,0.367c1.692,1.837,5.075,4.042,7.049,2.939c1.974-1.102,1.691-3.674,3.947-2.939s2.398,4.042,7.473,3.307
		c5.075-0.735,7.048-5.511,4.511-5.511s-5.074-2.204-3.383-3.674c1.691-1.469,9.304,0.735,10.432-1.102s5.217-2.939,11.138-1.102
		s8.319,5.143,9.165,4.041s3.947-2.571,5.075,0.735c1.127,3.306-10.856,6.245-14.239,5.51c-3.384-0.735-11.42,0-12.266,2.204
		s-3.665,1.652-3.665,4.777c0,3.124-5.921-2.022-5.921,0.367s-3.383,3.491,3.947,4.96c7.33,1.47,2.113,4.776,7.33,5.143
		c5.217,0.368,7.755-3.306,10.01-3.673c2.256-0.368,2.819,5.878,5.357,5.51c2.537-0.367,7.19-4.408,9.164-2.571
		c1.974,1.836,9.586,4.59,8.458,12.491c-1.128,7.899-1.267,18.368-7.895,22.962c-6.626,4.593-39.332,11.573-41.447,9.736
		c-2.116-1.837-62.735-12.123-67.67-22.228S83.809,31.876,83.809,31.876l-5.075-1.102l3.666-4.041l-10.292-13.41l-8.458,9.736
		l2.537,2.571l-9.868,9.551l-2.68-2.57h-5.075l3.383-5.144L46.026,20.855z"/>
	<path fill-rule="evenodd" clip-rule="evenodd" fill="#18A85A" d="M49.254,37.532c0,0-2.87-0.239-2.63,1.674
		c0.239,1.913,1.351,3.348-0.239,3.587c-1.59,0.239-3.025,1.112-3.025,1.112l1.674,1.195c-0.957,0.718-2.631,1.196-2.631,1.196
		l-0.478,2.631l-2.631,0.479l1.674,2.63h1.913l-0.479,3.026l-2.63-0.479l-0.478,2.152h-4.221l2.787,1.914l-1.196,2.391h-2.308
		l1.112,2.392l-1.83,0.239l0.479,2.068l1.195,2.87c0,0,3.265-0.479,3.025,0.957c-0.239,1.434-4.22,2.152-4.938,1.195
		c-0.718-0.956-1.674-4.782-1.674-4.782l-0.718,2.87l-0.478,2.151l-2.392,0.957v2.391l-0.717,2.548l-0.239,2.63l-1.196,2.152
		l-1.59,1.196l-1.196,2.785l0.239,3.348l-3.109,0.957l1.913,0.957l0.718,2.15l-1.914,1.675c0,0,1.435,2.308,2.152,2.308
		s5.656-1.912,7.09,0.238c1.435,2.153,0,5.501-2.152,5.263c-2.152-0.239-1.83-3.588-5.416-3.349
		c-3.587,0.239-5.979-0.479-6.696,1.914c-0.717,2.391,1.914,3.264,0.957,5.177c-0.957,1.913-2.786,2.63-2.786,2.63l0.239,5.262
		h15.376c0,0,0,5.895,1.674,5.655c1.674-0.239,4.543-0.718,3.108,0.718c-1.435,1.434-5.261,0-5.5,1.434
		c-0.239,1.436-1.674,3.826-1.674,3.826l1.674,2.309l-2.63,1.195v2.391c1.196,1.196-1.196,3.348-1.196,3.348l-2.068,0.957
		c0,0-1.674-2.068-2.631,0.239c-0.956,2.308,2.631,3.503,0.479,5.177c-2.152,1.675-4.543-0.479-5.022,1.914
		c-0.478,2.391,0.957,3.348,0.957,3.348l-1.914,1.195l0.718,2.547l-1.59,0.717l-0.239,1.914l1.59,1.912l-1.351,2.631l0.239,2.308
		l-1.196,1.913h-1.435l-1.435,1.913l3.826,2.631c0,0-0.801,2.068,0.873,4.46c1.674,2.391,4.783,6.218,4.783,6.218l3.109,1.194
		c0,0,3.981-0.479,5.895-1.673c1.913-1.196,1.674-6.062-0.239-6.935c-1.913-0.874,1.435-2.786,1.435-2.786s1.435-5.823,0-7.175
		c-1.435-1.351-6.457-2.547-4.065-3.503c2.391-0.956,3.348-0.956,3.348-0.956l-0.239-4.066l4.065-1.195l1.435-2.547l4.46-0.479
		l3.348-2.869l1.913,1.435l4.221,1.913l3.827,0.24l2.391,1.111l2.546,1.674l1.914-1.195l1.196-2.068l1.913,0.238l2.391-0.717
		l1.674-1.914l-2.152-1.434l0.479-1.914l2.068-1.674l-0.634-3.025l-1.674-2.152h-2.63l0.956-4.064c0,0-4.459,1.352-7.09-2.631
		c-2.63-3.98,0.479-12.745-1.913-13.224c-2.391-0.478-4.866-0.155-6.696,1.196c-1.83,1.351-2.63-0.957-0.956-1.914
		c1.673-0.956,20.003-13.547,20.003-13.547l25.576,24.463h8.286l-0.718-4.543c0,0-3.025,0.479-2.786-1.435
		c0.239-1.913,3.587-5.895,0.957-6.134c-2.631-0.239-4.783,0-4.783,0l-2.152-1.914l-0.478-2.151l-1.913-0.239l-1.112,1.913
		l-0.717-1.913v-1.673l-0.717-1.83l-0.239-2.391l-1.913-1.675l-1.674-0.717l-1.913,1.435l-0.478,2.151l-2.308,1.675
		c0,0-4.066,0.239-4.544-4.065c-0.479-4.305-0.957-7.33-0.957-7.33l-2.152-1.674l-3.025-2.63l-3.109-2.63l-0.479-2.069
		l16.573-12.351h7.174l0.239-1.914l-2.869-2.63l5.655-4.221l8.765,6.133l5.022-3.826l15.46,13.547l6.133-4.544l8.764,8.849
		c0,0-4.304,2.068-2.391,4.938c1.913,2.869,8.13,3.108,8.13,3.108l12.746-10.916l5.5,6.374l16.094-0.479
		c0,0,1.519-5.656-2.786-5.896c-4.305-0.239-5.022-0.478-5.5-2.87c-0.479-2.391-0.873-0.717-4.938-0.238
		c-4.065,0.478-3.827-1.279-1.913-2.392c1.913-1.112,3.025-4.46,3.025-4.46l1.435-1.434l2.152-0.239
		c-1.435-1.196-3.587-2.631-3.587-2.631l-0.718-2.152l2.87-1.351l3.348-1.196l2.152-1.196l2.547-2.151c0,0-5.656,0-7.09-0.479
		c-1.435-0.479-4.46-3.108-4.46-3.108l2.786-1.83c0,0-8.525,0.957-9.243-0.239c-0.717-1.196,2.152-3.586,2.152-3.586l-2.392-1.435
		l3.826-1.196c0,0,2.392-1.279,0.957-2.391c-1.435-1.112-3.587,0-3.587,0l-4.065-0.717c0,0-2.152-0.395-0.239-1.591
		c1.913-1.196,4.783-1.913,4.783-1.913v-2.87c0,0-2.152,0.239-3.349-0.239c-1.195-0.478-2.151-0.562-1.195-2.869
		c0.956-2.307-0.239-2.546-0.239-2.546l-1.591-1.196l0.239-1.674l-2.392,1.435l-2.391-1.914l0.717-3.586l-1.435-1.435
		c0,0-0.957-0.395-1.913-2.068c-0.957-1.674-1.674,2.786-1.674,2.786l-0.634,3.348l-1.195,2.631c0,0-0.478,1.914-1.674,1.914
		s-3.827-2.87-3.827-2.87l-0.718-4.304l2.153-2.153l-3.348-1.59l-2.547-0.717l4.46-1.674l-4.221-0.239l-2.391-0.716l1.673-2.392
		l2.069-0.717l-3.742-0.239l-2.152-6.612l-1.196,6.612l-3.348,2.631l0.478,2.391l-2.068,1.196h-4.066l-2.391,1.435l1.434,1.59
		l2.392,1.196l1.196,2.151c-1.674,0.718-3.349,0.239-3.349,0.239c-0.478,1.196,1.196,1.674,1.196,1.674l0.957,1.674l-2.63,1.435
		c-0.478,0.716,0.956,1.829,0.956,1.829l1.674,1.196l0.957,2.391l-0.239,2.153l-3.348,0.717l-0.717-1.435l-1.674-2.63l-0.479-2.392
		l-2.307,1.435l-2.392-4.938l-0.717,4.46c-2.391,1.196-1.196,2.869-1.196,2.869l-0.239,2.392l-1.196,2.391h-3.587l2.152,2.546
		l-0.957,1.435l-2.786-0.239l-0.239,3.588v3.347l-2.152,1.352l-2.87,0.239l4.065,1.913l2.152,2.392l-1.674,1.195l-2.152-0.239v1.435
		l-2.152-0.718l-1.674-2.151l-1.674,0.956l-3.265,0.718l-1.435-0.479l-0.717-2.152l0.478-2.152l1.674-0.956l-3.109-0.634
		l1.196-2.392l-0.957-2.391l-2.63,0.239l-0.957-1.914l1.674-2.392c0.239-1.195-2.392-0.956-2.392-0.956l-0.633-2.547l1.351-1.674
		l-2.308-0.478l-0.957-3.108l-1.674,0.239l-1.196-4.46l-0.956-2.87l-0.479,5.177l-2.63,1.674l-1.83,3.348l-1.195,1.913l2.786,2.547
		l-2.068,4.543l-3.348,0.957c0,0-0.478,1.196,0.957,2.391c1.435,1.196-0.479,2.152-0.479,2.152l-3.108,2.546l-1.435-3.264
		l-1.196-2.151l0.718-2.153l-3.743-1.196l-0.239-2.869l-1.673-3.265l2.152-1.195l-3.108-1.674L49.254,37.532z"/>
	<polygon fill-rule="evenodd" clip-rule="evenodd" fill="#2D72B9" points="48.792,113.615 67.767,100.801 92.445,124.845 
		94.504,137.184 71.885,119.777 59.23,129.423 53.96,113.945 	"/>
	<polygon fill-rule="evenodd" clip-rule="evenodd" fill="#2D72B9" points="87.05,105.931 99.835,116.877 116.922,102.116 
		129.708,110.786 109.177,88.937 	"/>
	<polygon fill-rule="evenodd" clip-rule="evenodd" fill="#2D72B9" points="70.698,92.972 64.326,85.086 81.47,72.889 99.145,92.009 
		82.797,83.803 	"/>
	<polygon fill-rule="evenodd" clip-rule="evenodd" fill="#2D72B9" points="91.491,75.965 105.563,66.657 116.07,76.607 
		108.75,73.397 96.536,82.705 	"/>
	<polygon fill-rule="evenodd" clip-rule="evenodd" fill="#2D72B9" points="114.122,85.1 126.083,75.47 131.544,80.285 
		119.167,90.739 	"/>
	<polygon fill-rule="evenodd" clip-rule="evenodd" fill="#2D72B9" points="133.771,96.366 151.977,81.097 170.062,102.276 
		161.192,95.036 143.251,110.764 	"/>
	<polygon fill-rule="evenodd" clip-rule="evenodd" fill="#2D72B9" points="130.035,126.986 157.141,102.073 180.936,130.837 
		167.509,122.493 142.249,151.243 	"/>
	<polygon fill-rule="evenodd" clip-rule="evenodd" fill="#2D72B9" points="89.431,70.65 92.768,67.761 97.281,70.33 91.44,64.049 
		86.245,67.44 	"/>
	<path fill-rule="evenodd" clip-rule="evenodd" fill="#18A85A" d="M162.424,108.33c0,0,0-4.374,2.784-3.701
		c2.783,0.672,3.896,6.393,5.844,5.047c1.949-1.346,0.695-8.076,4.175-7.065c3.48,1.009,2.367,5.383,4.315,5.046
		c1.948-0.336,4.732-5.72,7.793-3.364c3.062,2.354,2.783,4.88,1.113,7.908s-4.453,4.71-2.504,6.057
		c1.948,1.346,5.704-2.692,8.628-1.683c2.923,1.01,6.542,0.673,6.263,6.057c-0.279,5.383-5.01,2.521-4.453,6.057
		c0.557,3.533-1.671,5.889,1.948,6.898c3.618,1.01,6.401,3.365,6.401,3.365s2.505,9.084-1.113,10.43
		c-3.618,1.346-5.566,1.682-5.566,1.682s4.731-0.166,3.34,3.872c-1.392,4.038-6.958,0.673-5.289,2.691s3.896,4.037,3.896,4.037
		l-9.046,21.367c0,0-2.227-9.421-4.732-8.411c-2.505,1.009-5.01-0.673-5.01-0.673l-0.279-5.554c0,0,2.228-3.701-0.278-4.71
		s0.278-5.721-0.279-6.729c-0.557-1.01-2.367-13.629-6.263-13.292s-6.68-1.683-6.68-1.683s0-2.691,1.113-5.383
		s6.68-7.572,6.68-7.572l4.872-1.682L162.424,108.33z"/>
</g>
<g>
	<path fill-rule="evenodd" clip-rule="evenodd" fill="#18A85A" d="M300.239,63.815c-0.464,1.333-1.355,2.496-2.672,3.484
		s-2.999,1.516-5.048,1.584c-2.358-0.041-4.331-0.83-5.918-2.371c-1.586-1.541-2.412-3.587-2.475-6.141
		c0.013-1.243,0.236-2.4,0.674-3.47c0.437-1.07,1.018-1.96,1.741-2.668c0.874-0.828,1.788-1.439,2.741-1.832
		c0.953-0.394,2.046-0.588,3.276-0.584c1.554-0.006,3.048,0.422,4.483,1.281c1.435,0.861,2.515,2.189,3.236,3.986h3.009
		c-0.794-2.566-2.186-4.531-4.178-5.893c-1.99-1.362-4.214-2.049-6.67-2.061c-2.17,0.022-4.098,0.527-5.781,1.515
		c-1.684,0.987-3.009,2.325-3.977,4.012c-0.967,1.687-1.46,3.591-1.48,5.713c0.008,1.933,0.463,3.749,1.364,5.446
		c0.902,1.699,2.203,3.08,3.905,4.146c1.702,1.064,3.757,1.613,6.167,1.646c2.591-0.043,4.831-0.777,6.721-2.205
		c1.889-1.426,3.198-3.291,3.929-5.589H300.239z"/>
	<path fill-rule="evenodd" clip-rule="evenodd" fill="#18A85A" d="M309.049,60.371c0.046-2.437,0.845-4.455,2.396-6.059
		s3.576-2.436,6.078-2.495c1.897,0.03,3.519,0.515,4.866,1.455c1.348,0.941,2.325,2.158,2.935,3.652
		c0.239,0.52,0.416,1.066,0.53,1.644c0.115,0.578,0.162,1.165,0.144,1.763c0,0.578-0.06,1.154-0.179,1.727
		c-0.118,0.574-0.297,1.121-0.534,1.639c-0.587,1.533-1.541,2.773-2.861,3.722c-1.319,0.949-2.927,1.436-4.821,1.465
		c-1.95-0.033-3.555-0.48-4.813-1.344c-1.26-0.861-2.194-1.938-2.807-3.226c-0.612-1.289-0.924-2.59-0.933-3.902V60.371z
		 M328.843,49.724h-2.925v4.474c-0.529-1.27-1.54-2.417-3.034-3.441c-1.494-1.024-3.387-1.566-5.678-1.626
		c-2.181,0.023-4.098,0.531-5.75,1.523c-1.651,0.993-2.942,2.333-3.873,4.021c-0.931,1.689-1.403,3.588-1.419,5.696
		c0.008,1.983,0.448,3.823,1.322,5.518c0.874,1.695,2.133,3.064,3.776,4.109c1.645,1.043,3.625,1.58,5.943,1.611
		c1.922-0.008,3.642-0.438,5.157-1.289c1.517-0.854,2.701-2.084,3.555-3.693v4.389h2.925V49.724z"/>
	<path fill-rule="evenodd" clip-rule="evenodd" fill="#18A85A" d="M334.5,71.016h2.926V59.14c0.002-1.122,0.125-2.103,0.37-2.938
		s0.598-1.559,1.056-2.168c0.445-0.65,1.059-1.181,1.841-1.593s1.673-0.607,2.674-0.584c1.086,0.025,2.013,0.232,2.782,0.624
		c0.77,0.391,1.398,0.935,1.891,1.633c0.415,0.633,0.714,1.344,0.896,2.133c0.183,0.787,0.253,1.765,0.214,2.934v11.835h2.924V59.18
		c-0.015-1.176,0.064-2.141,0.233-2.895c0.17-0.754,0.514-1.492,1.034-2.212c0.512-0.733,1.182-1.286,2.011-1.658
		c0.828-0.372,1.716-0.559,2.663-0.56c1.005,0.005,1.855,0.164,2.55,0.475c0.694,0.312,1.257,0.747,1.688,1.306
		c0.604,0.702,1.021,1.537,1.253,2.505s0.343,2.021,0.331,3.156v11.717h2.925V59.18c0.016-1.859-0.153-3.416-0.509-4.672
		c-0.354-1.254-0.988-2.336-1.901-3.245c-0.744-0.746-1.611-1.289-2.604-1.629c-0.992-0.341-2.038-0.509-3.139-0.504
		c-1.197,0.007-2.298,0.219-3.302,0.637c-1.004,0.417-1.857,0.995-2.56,1.734c-0.391,0.419-0.708,0.826-0.95,1.216
		c-0.242,0.39-0.44,0.738-0.593,1.039c-0.075-0.161-0.252-0.491-0.528-0.99c-0.278-0.497-0.562-0.907-0.855-1.226
		c-0.762-0.844-1.642-1.458-2.642-1.843c-1-0.385-2.06-0.574-3.179-0.568c-1.253-0.003-2.509,0.319-3.768,0.969
		c-1.258,0.648-2.246,1.644-2.964,2.984v-3.36H334.5V71.016z"/>
	<path fill-rule="evenodd" clip-rule="evenodd" fill="#18A85A" d="M392.038,60.371c-0.053,2.485-0.867,4.512-2.44,6.083
		c-1.572,1.568-3.584,2.379-6.033,2.43c-1.196-0.008-2.309-0.221-3.336-0.645c-1.028-0.422-1.922-1.012-2.683-1.771
		c-0.778-0.779-1.38-1.683-1.807-2.716c-0.427-1.031-0.643-2.146-0.648-3.34c0.008-1.215,0.221-2.341,0.639-3.377
		c0.418-1.035,0.997-1.943,1.736-2.722c0.779-0.779,1.677-1.389,2.698-1.827c1.021-0.438,2.128-0.661,3.321-0.668
		c1.913,0.031,3.503,0.471,4.77,1.318s2.214,1.918,2.842,3.211c0.629,1.292,0.942,2.62,0.941,3.984V60.371z M372.363,79.089h2.926
		v-8.074v-4.35c0.332,0.758,0.886,1.514,1.661,2.266c0.775,0.754,1.758,1.383,2.946,1.889c1.189,0.506,2.57,0.77,4.144,0.789
		c2.216-0.027,4.14-0.553,5.771-1.574c1.63-1.021,2.893-2.373,3.788-4.053c0.896-1.681,1.351-3.526,1.363-5.533
		c-0.002-1.873-0.415-3.667-1.239-5.381c-0.824-1.715-2.046-3.124-3.666-4.228c-1.621-1.103-3.627-1.673-6.018-1.711
		c-2.048,0.016-3.824,0.468-5.331,1.354s-2.7,2.108-3.578,3.669v-4.43h-2.768V79.089z"/>
	<path fill-rule="evenodd" clip-rule="evenodd" fill="#18A85A" d="M399.393,71.016h2.924V49.724h-2.924V71.016z M399.393,45.8h2.924
		v-4.072h-2.924V45.8z"/>
	<path fill-rule="evenodd" clip-rule="evenodd" fill="#18A85A" d="M408.019,71.016h2.925V58.982c0.014-2.233,0.619-3.971,1.816-5.21
		c1.197-1.24,2.901-1.878,5.113-1.916c2.383-0.003,4.123,0.687,5.224,2.068c1.099,1.383,1.642,3.24,1.627,5.572v11.519h2.886V58.903
		c0.012-1.752-0.271-3.359-0.85-4.82c-0.578-1.463-1.523-2.642-2.837-3.535c-1.312-0.896-3.065-1.367-5.257-1.417
		c-1.917-0.025-3.559,0.351-4.926,1.126c-1.367,0.776-2.365,1.864-2.995,3.264c0.02-0.706,0.031-1.368,0.035-1.986
		c0.005-0.618,0.006-1.221,0.005-1.811h-2.767V71.016z"/>
	<path fill-rule="evenodd" clip-rule="evenodd" fill="#18A85A" d="M434.806,60.331c0.061-2.536,0.89-4.572,2.484-6.107
		c1.596-1.536,3.592-2.325,5.989-2.367c1.523,0.018,2.823,0.3,3.901,0.847c1.077,0.547,1.941,1.254,2.593,2.124
		c0.67,0.866,1.161,1.787,1.476,2.762c0.312,0.975,0.468,1.916,0.465,2.822c-0.025,1.176-0.242,2.277-0.653,3.305
		c-0.411,1.029-0.985,1.931-1.723,2.712c-0.756,0.777-1.639,1.381-2.648,1.807c-1.009,0.426-2.118,0.643-3.331,0.648
		c-1.838-0.025-3.393-0.441-4.663-1.248c-1.271-0.807-2.236-1.854-2.896-3.14c-0.659-1.285-0.99-2.66-0.994-4.124V60.331z
		 M454.52,49.724h-2.885v4.394c-0.617-1.353-1.68-2.511-3.188-3.475c-1.507-0.964-3.322-1.469-5.443-1.512
		c-2.183,0.021-4.105,0.524-5.77,1.507c-1.665,0.984-2.969,2.322-3.912,4.014s-1.423,3.612-1.44,5.759
		c0.015,2.069,0.482,3.947,1.405,5.63c0.923,1.684,2.214,3.027,3.877,4.027c1.661,1.004,3.607,1.518,5.84,1.541
		c2.065-0.023,3.824-0.5,5.276-1.424c1.451-0.924,2.557-2.15,3.316-3.678v2.73c-0.027,1.773-0.437,3.291-1.229,4.553
		c-0.793,1.26-1.812,2.227-3.06,2.899c-1.246,0.674-2.562,1.012-3.948,1.02c-0.688,0.005-1.449-0.115-2.281-0.356
		c-0.833-0.243-1.643-0.64-2.431-1.188c-0.628-0.441-1.144-0.906-1.549-1.392c-0.405-0.486-0.733-0.959-0.985-1.422h-3.361
		c0.695,1.968,1.954,3.597,3.778,4.885s4.074,1.954,6.75,2.002c1.471-0.009,2.916-0.298,4.336-0.87
		c1.421-0.57,2.668-1.375,3.743-2.411c0.943-0.878,1.703-1.995,2.277-3.352c0.573-1.354,0.868-3.036,0.884-5.038V49.724z"/>
</g>
<g>
	<polygon fill-rule="evenodd" clip-rule="evenodd" fill="#18A85A" points="218.027,140.972 247.224,140.972 247.224,135.855 
		224.658,135.855 224.658,89.022 218.027,89.022 	"/>
	<path fill-rule="evenodd" clip-rule="evenodd" fill="#18A85A" d="M256.433,122.087c0.094-4.318,1.707-7.9,4.843-10.744
		c3.136-2.846,7.23-4.319,12.287-4.425c3.834,0.053,7.111,0.913,9.835,2.58c2.724,1.669,4.7,3.828,5.933,6.479
		c0.482,0.92,0.839,1.889,1.07,2.914c0.232,1.025,0.329,2.066,0.29,3.125c0,1.025-0.119,2.049-0.359,3.064
		c-0.24,1.018-0.601,1.986-1.081,2.906c-1.188,2.719-3.114,4.92-5.782,6.604c-2.668,1.682-5.917,2.547-9.745,2.598
		c-3.942-0.059-7.185-0.854-9.729-2.383c-2.547-1.529-4.438-3.438-5.675-5.723c-1.238-2.285-1.866-4.596-1.886-6.924V122.087z
		 M296.443,103.206h-5.911v7.935c-1.069-2.252-3.113-4.287-6.134-6.103c-3.02-1.816-6.845-2.779-11.476-2.885
		c-4.408,0.041-8.282,0.94-11.622,2.703c-3.339,1.762-5.948,4.137-7.829,7.132c-1.881,2.994-2.837,6.361-2.87,10.1
		c0.016,3.52,0.908,6.781,2.674,9.789c1.766,3.008,4.311,5.438,7.633,7.289c3.325,1.854,7.328,2.807,12.014,2.859
		c3.886-0.014,7.36-0.775,10.425-2.287c3.065-1.514,5.46-3.697,7.185-6.551v7.785h5.911V103.206z"/>
	<polygon fill-rule="evenodd" clip-rule="evenodd" fill="#18A85A" points="337.247,140.972 337.087,94.772 360.136,140.972 
		364.377,140.972 387.346,94.772 387.187,140.972 393.418,140.972 393.418,89.022 384.145,89.022 362.297,132.617 340.369,89.022 
		331.096,89.022 331.096,140.972 	"/>
	<path fill-rule="evenodd" clip-rule="evenodd" fill="#18A85A" d="M408.329,122.087c0.111-4.408,1.75-8.004,4.912-10.789
		c3.163-2.784,7.183-4.221,12.056-4.31c4.909,0.089,8.938,1.525,12.086,4.31c3.148,2.785,4.776,6.381,4.883,10.789
		c-0.106,4.408-1.734,8.008-4.883,10.791c-3.147,2.783-7.177,4.221-12.086,4.311c-4.873-0.092-8.893-1.525-12.056-4.303
		c-3.162-2.775-4.801-6.352-4.912-10.727V122.087z M402.498,122.087c0.025,3.586,0.97,6.873,2.834,9.865s4.497,5.395,7.9,7.207
		c3.403,1.814,7.424,2.748,12.064,2.795c4.668-0.047,8.708-0.98,12.121-2.795c3.414-1.812,6.056-4.215,7.921-7.207
		c1.867-2.992,2.812-6.279,2.838-9.865c-0.025-3.584-0.971-6.878-2.838-9.881c-1.865-3.004-4.507-5.417-7.921-7.243
		c-3.413-1.824-7.453-2.762-12.121-2.811c-4.641,0.049-8.661,0.986-12.064,2.809s-6.036,4.231-7.9,7.225
		c-1.864,2.992-2.809,6.271-2.834,9.831V122.087z"/>
	<rect x="457.059" y="89.022" fill-rule="evenodd" clip-rule="evenodd" fill="#18A85A" width="5.911" height="51.95"/>
	<path fill-rule="evenodd" clip-rule="evenodd" fill="#18A85A" d="M477.686,122.087c0.094-4.318,1.707-7.9,4.842-10.744
		c3.136-2.846,7.23-4.319,12.286-4.425c3.833,0.053,7.111,0.913,9.834,2.58c2.724,1.669,4.701,3.828,5.934,6.479
		c0.481,0.92,0.839,1.889,1.07,2.914s0.328,2.066,0.29,3.125c0,1.025-0.12,2.049-0.36,3.064c-0.24,1.018-0.601,1.986-1.08,2.906
		c-1.188,2.719-3.115,4.92-5.782,6.604c-2.668,1.682-5.917,2.547-9.745,2.598c-3.941-0.059-7.184-0.854-9.729-2.383
		s-4.437-3.438-5.674-5.723c-1.238-2.285-1.866-4.596-1.886-6.924V122.087z M517.694,103.206h-5.912v7.935
		c-1.069-2.252-3.113-4.287-6.133-6.103c-3.02-1.816-6.845-2.779-11.476-2.885c-4.408,0.041-8.281,0.94-11.62,2.703
		c-3.339,1.762-5.948,4.137-7.829,7.132c-1.881,2.994-2.836,6.361-2.869,10.1c0.016,3.52,0.907,6.781,2.674,9.789
		c1.766,3.008,4.311,5.438,7.633,7.289c3.323,1.854,7.327,2.807,12.012,2.859c3.886-0.014,7.36-0.775,10.425-2.287
		c3.065-1.514,5.46-3.697,7.184-6.551v7.785h5.912V103.206z"/>
</g>
<g>
</g>
<g>
</g>
<g>
</g>
<g>
</g>
<g>
</g>
<g>
</g>
</svg>
