<?xml version="1.0" encoding="utf-8"?>
<!-- Generator: Adobe Illustrator 16.0.0, SVG Export Plug-In . SVG Version: 6.00 Build 0)  -->
<!DOCTYPE svg PUBLIC "-//W3C//DTD SVG 1.1//EN" "http://www.w3.org/Graphics/SVG/1.1/DTD/svg11.dtd">
<svg version="1.1" id="Capa_1" xmlns="http://www.w3.org/2000/svg" xmlns:xlink="http://www.w3.org/1999/xlink" x="0px" y="0px"
	 width="595.28px" height="841.89px" viewBox="0 0 595.28 841.89" enable-background="new 0 0 595.28 841.89" xml:space="preserve">
<path fill-rule="evenodd" clip-rule="evenodd" fill="#2B72B8" d="M262.556,360.349l-20.864,30.16h-4.401c0,0,1.06-3.079-0.163-3.398
	c-1.224-0.319-1.631-3.93-0.571-5.417s-0.896-6.052,0.245-8.071c1.141-2.018,4.238-3.08,4.89-5.204
	c0.652-2.124,1.059-6.477,3.26-7.433s7.906-2.868,9.536-5.205c1.63-2.336,3.179-2.548,5.46-2.124
	c2.282,0.425,1.059-3.398,5.542-2.973s42.707-0.637,42.707-0.637s0.733-2.124,1.712-1.699c0.979,0.425,0,2.548,1.793,2.761
	c1.793,0.212,2.119-1.699,4.074-0.637c1.956,1.062,0.163,2.336,1.793,2.973c1.631,0.637,3.506-0.85,4.483,0.212
	s2.934,2.336,4.075,1.699c1.141-0.637,0.978-2.124,2.281-1.699c1.305,0.425,1.387,2.336,4.32,1.912s4.074-3.186,2.607-3.186
	s-2.934-1.274-1.955-2.124c0.978-0.85,5.378,0.425,6.03-0.637c0.651-1.062,3.016-1.699,6.438-0.637
	c3.423,1.062,4.81,2.974,5.299,2.336c0.488-0.637,2.281-1.486,2.934,0.425c0.651,1.912-6.276,3.61-8.232,3.186
	c-1.955-0.424-6.602,0-7.091,1.274c-0.488,1.274-2.118,0.955-2.118,2.761s-3.423-1.169-3.423,0.212s-1.956,2.019,2.281,2.868
	c4.238,0.85,1.222,2.761,4.238,2.973c3.016,0.212,4.482-1.912,5.787-2.124c1.304-0.213,1.63,3.398,3.097,3.186
	s4.156-2.549,5.298-1.487c1.141,1.062,5.542,2.654,4.89,7.221s-0.732,10.619-4.563,13.274c-3.831,2.656-22.738,6.691-23.962,5.629
	c-1.223-1.062-36.268-7.008-39.12-12.85c-2.854-5.841-13.53-21.877-13.53-21.877l-9.127,12.638L262.556,360.349z"/>
<path fill-rule="evenodd" clip-rule="evenodd" fill="#16A859" d="M264.422,369.99c0,0-1.659-0.138-1.521,0.968
	c0.138,1.106,0.781,1.936-0.139,2.074c-0.919,0.138-1.749,0.643-1.749,0.643l0.968,0.691c-0.553,0.415-1.521,0.691-1.521,0.691
	l-0.276,1.521l-1.521,0.276l0.968,1.521h1.106l-0.277,1.749l-1.521-0.276l-0.276,1.244h-2.44l1.611,1.106l-0.691,1.382h-1.334
	l0.643,1.382l-1.058,0.138l0.276,1.196l0.691,1.659c0,0,1.887-0.276,1.749,0.553c-0.138,0.83-2.44,1.244-2.854,0.691
	c-0.415-0.553-0.968-2.765-0.968-2.765l-0.415,1.659l-0.276,1.244l-1.382,0.553v1.382l-0.415,1.472l-0.138,1.521l-0.691,1.244
	l-0.919,0.691l-0.691,1.611l0.138,1.935l-1.797,0.553l1.106,0.553l0.415,1.244l-1.106,0.968c0,0,0.83,1.334,1.244,1.334
	s3.27-1.106,4.099,0.138c0.83,1.245,0,3.18-1.244,3.042s-1.058-2.074-3.131-1.936c-2.074,0.139-3.456-0.276-3.871,1.106
	c-0.415,1.382,1.105,1.887,0.553,2.993s-1.61,1.521-1.61,1.521l0.138,3.041h8.889c0,0,0,3.408,0.968,3.27
	c0.968-0.138,2.626-0.415,1.797,0.415c-0.829,0.829-3.041,0-3.18,0.829c-0.138,0.83-0.968,2.212-0.968,2.212l0.968,1.334
	l-1.521,0.691v1.383c0.691,0.69-0.691,1.936-0.691,1.936l-1.196,0.553c0,0-0.968-1.196-1.521,0.138
	c-0.553,1.334,1.521,2.025,0.276,2.994c-1.244,0.967-2.626-0.277-2.903,1.105c-0.277,1.383,0.553,1.936,0.553,1.936l-1.106,0.691
	l0.415,1.472l-0.919,0.415l-0.139,1.105l0.919,1.106l-0.781,1.521l0.138,1.334l-0.691,1.106h-0.83l-0.829,1.105l2.212,1.521
	c0,0-0.463,1.196,0.504,2.579c0.968,1.382,2.765,3.595,2.765,3.595l1.797,0.69c0,0,2.302-0.276,3.408-0.968s0.968-3.504-0.138-4.009
	s0.83-1.61,0.83-1.61s0.83-3.367,0-4.147c-0.83-0.781-3.733-1.473-2.35-2.025c1.382-0.554,1.936-0.554,1.936-0.554l-0.139-2.35
	l2.351-0.691l0.829-1.473l2.579-0.276l1.935-1.659l1.106,0.83l2.44,1.105l2.211,0.139l1.383,0.643l1.472,0.968l1.106-0.69
	l0.691-1.196l1.106,0.138l1.382-0.414l0.968-1.106l-1.244-0.829l0.276-1.105l1.196-0.969l-0.366-1.748l-0.968-1.244H271.7
	l0.553-2.351c0,0-2.578,0.781-4.099-1.521c-1.521-2.302,0.277-7.369-1.106-7.646c-1.382-0.276-2.813-0.09-3.871,0.691
	s-1.521-0.553-0.553-1.106c0.967-0.553,11.564-7.832,11.564-7.832l14.785,14.143h4.791l-0.415-2.627c0,0-1.749,0.276-1.61-0.829
	c0.138-1.106,2.074-3.408,0.553-3.546c-1.521-0.139-2.765,0-2.765,0l-1.244-1.106l-0.276-1.244l-1.106-0.138l-0.643,1.106
	l-0.415-1.106v-0.968l-0.415-1.058l-0.138-1.382l-1.106-0.968l-0.968-0.415l-1.106,0.83l-0.276,1.244l-1.334,0.968
	c0,0-2.351,0.138-2.627-2.351s-0.553-4.237-0.553-4.237l-1.244-0.968l-1.749-1.521l-1.797-1.521l-0.277-1.196l9.581-7.14h4.147
	l0.138-1.106l-1.659-1.521l3.27-2.44l5.066,3.546l2.903-2.212l8.938,7.832l3.546-2.627l5.066,5.115c0,0-2.488,1.196-1.382,2.854
	c1.105,1.659,4.7,1.798,4.7,1.798l7.368-6.312l3.18,3.685l9.304-0.276c0,0,0.878-3.27-1.61-3.408
	c-2.488-0.138-2.903-0.276-3.18-1.659s-0.505-0.415-2.854-0.138c-2.351,0.276-2.212-0.739-1.105-1.383
	c1.105-0.643,1.748-2.578,1.748-2.578l0.83-0.829l1.244-0.139c-0.83-0.691-2.074-1.521-2.074-1.521l-0.414-1.244l1.658-0.781
	l1.936-0.691l1.244-0.691l1.473-1.245c0,0-3.27,0-4.099-0.276c-0.83-0.276-2.579-1.797-2.579-1.797l1.611-1.058
	c0,0-4.929,0.553-5.344-0.139c-0.414-0.691,1.244-2.073,1.244-2.073l-1.382-0.83l2.212-0.691c0,0,1.382-0.74,0.553-1.382
	c-0.83-0.643-2.074,0-2.074,0l-2.35-0.415c0,0-1.244-0.228-0.139-0.919c1.106-0.691,2.766-1.106,2.766-1.106v-1.659
	c0,0-1.244,0.138-1.936-0.138s-1.244-0.325-0.691-1.659c0.553-1.334-0.139-1.472-0.139-1.472l-0.919-0.691l0.138-0.968l-1.382,0.829
	l-1.383-1.105l0.415-2.074l-0.83-0.829c0,0-0.553-0.229-1.105-1.196s-0.968,1.611-0.968,1.611l-0.366,1.935l-0.691,1.521
	c0,0-0.276,1.106-0.968,1.106s-2.212-1.659-2.212-1.659l-0.414-2.488l1.244-1.244l-1.936-0.919l-1.473-0.415l2.578-0.968
	l-2.439-0.138l-1.383-0.415l0.968-1.383l1.196-0.415l-2.164-0.138l-1.244-3.823l-0.691,3.823l-1.936,1.521l0.276,1.383l-1.196,0.691
	h-2.35l-1.383,0.83l0.83,0.919l1.383,0.691l0.691,1.244c-0.969,0.415-1.936,0.139-1.936,0.139c-0.277,0.691,0.69,0.968,0.69,0.968
	l0.554,0.968l-1.521,0.829c-0.276,0.415,0.553,1.058,0.553,1.058l0.969,0.691l0.553,1.382l-0.139,1.244l-1.936,0.415l-0.414-0.829
	l-0.969-1.521l-0.275-1.383l-1.334,0.83l-1.382-2.855l-0.415,2.578c-1.382,0.691-0.691,1.659-0.691,1.659l-0.138,1.383l-0.691,1.382
	h-2.074l1.244,1.472l-0.553,0.83l-1.61-0.138l-0.138,2.073v1.936l-1.244,0.781l-1.659,0.139l2.35,1.105l1.244,1.383l-0.968,0.691
	l-1.244-0.139v0.83l-1.244-0.415l-0.968-1.244l-0.968,0.553l-1.887,0.415l-0.83-0.277l-0.415-1.244l0.276-1.244l0.968-0.553
	l-1.797-0.366l0.691-1.383l-0.553-1.382l-1.521,0.138l-0.553-1.105l0.967-1.383c0.138-0.691-1.382-0.553-1.382-0.553l-0.366-1.473
	l0.781-0.968l-1.334-0.276l-0.553-1.797l-0.968,0.138l-0.691-2.579l-0.553-1.659l-0.277,2.993l-1.521,0.968l-1.058,1.936
	l-0.691,1.106l1.611,1.472l-1.196,2.627l-1.936,0.553c0,0-0.276,0.691,0.553,1.383c0.83,0.691-0.276,1.244-0.276,1.244l-1.797,1.473
	l-0.83-1.888l-0.691-1.244l0.415-1.244l-2.164-0.691l-0.139-1.659l-0.968-1.887l1.245-0.691l-1.797-0.967L264.422,369.99z"/>
<polygon fill-rule="evenodd" clip-rule="evenodd" fill="#2B72B8" points="264.154,413.975 275.124,406.566 289.391,420.467 
	290.581,427.6 277.505,417.537 270.188,423.113 267.143,414.166 "/>
<polygon fill-rule="evenodd" clip-rule="evenodd" fill="#2B72B8" points="286.272,409.532 293.663,415.86 303.542,407.326 
	310.933,412.339 299.064,399.708 "/>
<polygon fill-rule="evenodd" clip-rule="evenodd" fill="#2B72B8" points="276.819,402.041 273.135,397.481 283.046,390.43 
	293.264,401.484 283.813,396.739 "/>
<polygon fill-rule="evenodd" clip-rule="evenodd" fill="#2B72B8" points="288.839,392.208 296.975,386.827 303.049,392.58 
	298.817,390.724 291.756,396.105 "/>
<polygon fill-rule="evenodd" clip-rule="evenodd" fill="#2B72B8" points="301.922,397.49 308.838,391.922 311.994,394.705 
	304.839,400.75 "/>
<polygon fill-rule="evenodd" clip-rule="evenodd" fill="#2B72B8" points="313.281,404.002 323.807,395.176 334.262,407.419 
	329.134,403.233 318.763,412.326 "/>
<polygon fill-rule="evenodd" clip-rule="evenodd" fill="#2B72B8" points="311.122,421.705 326.792,407.302 340.549,423.932 
	332.786,419.106 318.184,435.728 "/>
<polygon fill-rule="evenodd" clip-rule="evenodd" fill="#2B72B8" points="287.648,389.136 289.577,387.466 292.187,388.95 
	288.81,385.319 285.806,387.28 "/>
<path fill-rule="evenodd" clip-rule="evenodd" fill="#16A859" d="M329.847,410.919c0,0,0-2.529,1.608-2.14
	c1.609,0.389,2.253,3.695,3.379,2.917c1.127-0.778,0.402-4.668,2.414-4.085s1.368,3.112,2.495,2.918
	c1.126-0.195,2.735-3.307,4.505-1.945s1.609,2.821,0.644,4.572c-0.966,1.751-2.574,2.724-1.448,3.501
	c1.127,0.778,3.298-1.556,4.988-0.973s3.782,0.389,3.621,3.501s-2.896,1.458-2.574,3.501c0.321,2.043-0.966,3.405,1.126,3.988
	c2.092,0.584,3.7,1.945,3.7,1.945s1.449,5.252-0.643,6.03s-3.219,0.973-3.219,0.973s2.735-0.097,1.932,2.237
	c-0.805,2.334-4.023,0.389-3.058,1.557c0.966,1.167,2.253,2.334,2.253,2.334l-5.23,12.353c0,0-1.287-5.446-2.735-4.863
	c-1.448,0.584-2.896-0.389-2.896-0.389l-0.161-3.21c0,0,1.288-2.141-0.16-2.724s0.16-3.307-0.161-3.891
	c-0.322-0.583-1.368-7.878-3.621-7.684s-3.861-0.973-3.861-0.973s0-1.557,0.644-3.112c0.644-1.557,3.861-4.378,3.861-4.378
	l2.816-0.972L329.847,410.919z"/>
<path fill-rule="evenodd" clip-rule="evenodd" fill="#16A859" d="M258.318,455.972c-0.269,0.771-0.784,1.443-1.545,2.015
	c-0.761,0.571-1.733,0.877-2.917,0.916c-1.364-0.023-2.504-0.48-3.421-1.371c-0.917-0.891-1.394-2.074-1.431-3.551
	c0.007-0.719,0.137-1.388,0.389-2.006c0.253-0.619,0.588-1.133,1.007-1.543c0.505-0.479,1.033-0.831,1.584-1.059
	c0.551-0.227,1.183-0.34,1.894-0.338c0.898-0.003,1.762,0.244,2.592,0.742c0.829,0.497,1.453,1.265,1.871,2.303h1.739
	c-0.458-1.483-1.263-2.619-2.415-3.406c-1.151-0.787-2.436-1.185-3.856-1.191c-1.254,0.013-2.369,0.305-3.342,0.876
	s-1.74,1.344-2.299,2.319s-0.844,2.076-0.855,3.303c0.004,1.118,0.268,2.168,0.789,3.149s1.273,1.78,2.257,2.396
	c0.984,0.615,2.172,0.933,3.565,0.952c1.498-0.025,2.792-0.449,3.885-1.275c1.092-0.824,1.849-1.902,2.271-3.231H258.318z"/>
<path fill-rule="evenodd" clip-rule="evenodd" fill="#16A859" d="M263.411,453.98c0.026-1.408,0.488-2.575,1.385-3.503
	c0.897-0.927,2.068-1.407,3.514-1.442c1.096,0.018,2.034,0.298,2.813,0.842c0.778,0.544,1.344,1.248,1.697,2.111
	c0.138,0.3,0.24,0.616,0.306,0.95s0.094,0.674,0.083,1.019c0,0.335-0.034,0.668-0.103,0.999s-0.172,0.647-0.309,0.947
	c-0.34,0.886-0.891,1.604-1.654,2.151c-0.763,0.549-1.692,0.831-2.787,0.848c-1.127-0.02-2.055-0.278-2.783-0.777
	c-0.728-0.498-1.269-1.12-1.623-1.865c-0.354-0.745-0.533-1.497-0.539-2.257V453.98z M274.854,447.826h-1.69v2.586
	c-0.306-0.734-0.891-1.397-1.754-1.99c-0.864-0.592-1.958-0.904-3.282-0.939c-1.261,0.014-2.369,0.307-3.324,0.881
	s-1.701,1.349-2.239,2.324c-0.538,0.977-0.811,2.074-0.821,3.293c0.005,1.146,0.26,2.21,0.765,3.19
	c0.505,0.979,1.233,1.771,2.184,2.376c0.95,0.604,2.096,0.914,3.436,0.932c1.111-0.005,2.105-0.253,2.981-0.746
	c0.877-0.492,1.562-1.205,2.055-2.135v2.537h1.69V447.826z"/>
<path fill-rule="evenodd" clip-rule="evenodd" fill="#16A859" d="M278.125,460.135h1.691v-6.865
	c0.001-0.649,0.073-1.216,0.214-1.699c0.142-0.483,0.345-0.901,0.61-1.253c0.257-0.376,0.612-0.683,1.064-0.921
	s0.967-0.352,1.545-0.338c0.627,0.014,1.164,0.135,1.608,0.36c0.444,0.226,0.809,0.541,1.093,0.944
	c0.24,0.366,0.413,0.777,0.518,1.232c0.105,0.455,0.146,1.021,0.123,1.696v6.843h1.691v-6.843c-0.008-0.679,0.037-1.237,0.135-1.673
	c0.098-0.437,0.297-0.863,0.598-1.279c0.295-0.424,0.683-0.743,1.162-0.958s0.992-0.323,1.54-0.323
	c0.582,0.003,1.073,0.094,1.474,0.274c0.401,0.181,0.727,0.433,0.976,0.755c0.349,0.406,0.59,0.889,0.724,1.448
	c0.134,0.56,0.198,1.168,0.192,1.825v6.773h1.691v-6.843c0.009-1.074-0.089-1.975-0.294-2.7s-0.572-1.351-1.1-1.876
	c-0.43-0.431-0.931-0.745-1.504-0.942s-1.178-0.294-1.814-0.291c-0.692,0.004-1.329,0.127-1.909,0.368
	c-0.58,0.241-1.073,0.575-1.479,1.003c-0.226,0.242-0.409,0.477-0.549,0.703c-0.14,0.226-0.254,0.426-0.343,0.601
	c-0.043-0.094-0.146-0.284-0.306-0.572s-0.325-0.524-0.494-0.709c-0.44-0.488-0.949-0.843-1.527-1.065s-1.19-0.332-1.837-0.328
	c-0.724-0.002-1.45,0.185-2.178,0.56s-1.299,0.95-1.714,1.726v-1.941h-1.599V460.135z"/>
<path fill-rule="evenodd" clip-rule="evenodd" fill="#16A859" d="M311.387,453.98c-0.031,1.437-0.502,2.609-1.411,3.517
	s-2.072,1.376-3.488,1.405c-0.691-0.004-1.335-0.128-1.929-0.372s-1.111-0.586-1.551-1.024c-0.45-0.451-0.798-0.975-1.045-1.571
	c-0.246-0.597-0.371-1.24-0.374-1.932c0.004-0.702,0.127-1.353,0.368-1.951c0.242-0.599,0.577-1.124,1.005-1.574
	c0.45-0.45,0.97-0.802,1.56-1.056c0.59-0.253,1.23-0.382,1.92-0.387c1.105,0.019,2.025,0.272,2.758,0.763
	c0.731,0.49,1.279,1.108,1.643,1.856c0.363,0.746,0.545,1.515,0.545,2.303V453.98z M300.012,464.804h1.691v-4.668v-2.516
	c0.191,0.438,0.512,0.876,0.961,1.311c0.447,0.435,1.016,0.799,1.703,1.091c0.687,0.293,1.485,0.445,2.395,0.457
	c1.281-0.017,2.394-0.319,3.336-0.91c0.943-0.59,1.674-1.371,2.191-2.344c0.518-0.972,0.78-2.038,0.787-3.199
	c-0.001-1.082-0.239-2.119-0.716-3.11s-1.183-1.806-2.12-2.443c-0.937-0.638-2.096-0.968-3.479-0.989
	c-1.184,0.01-2.211,0.271-3.082,0.782c-0.871,0.513-1.561,1.22-2.068,2.122v-2.561h-1.6V464.804z"/>
<path fill-rule="evenodd" clip-rule="evenodd" fill="#16A859" d="M315.639,460.135h1.69v-12.309h-1.69V460.135z M315.639,445.557
	h1.69v-2.354h-1.69V445.557z"/>
<path fill-rule="evenodd" clip-rule="evenodd" fill="#16A859" d="M320.625,460.135h1.69v-6.957c0.009-1.291,0.358-2.296,1.051-3.012
	c0.691-0.717,1.677-1.086,2.956-1.107c1.377-0.002,2.383,0.396,3.019,1.195c0.636,0.8,0.95,1.873,0.941,3.222v6.659h1.668v-7.003
	c0.007-1.013-0.156-1.941-0.491-2.786c-0.334-0.846-0.881-1.527-1.64-2.045c-0.759-0.517-1.772-0.79-3.039-0.818
	c-1.108-0.015-2.058,0.203-2.848,0.651s-1.367,1.077-1.731,1.886c0.012-0.408,0.018-0.79,0.021-1.147
	c0.002-0.357,0.003-0.706,0.003-1.046h-1.6V460.135z"/>
<path fill-rule="evenodd" clip-rule="evenodd" fill="#16A859" d="M336.111,453.957c0.035-1.466,0.514-2.643,1.436-3.53
	c0.923-0.889,2.077-1.345,3.463-1.368c0.88,0.01,1.632,0.173,2.255,0.489s1.122,0.726,1.499,1.228
	c0.388,0.501,0.672,1.033,0.853,1.597c0.182,0.563,0.271,1.107,0.27,1.631c-0.015,0.681-0.141,1.317-0.378,1.911
	c-0.237,0.595-0.569,1.117-0.996,1.568c-0.437,0.45-0.947,0.798-1.53,1.045c-0.583,0.246-1.226,0.371-1.926,0.375
	c-1.063-0.015-1.962-0.256-2.696-0.722c-0.734-0.467-1.293-1.071-1.674-1.815s-0.572-1.539-0.574-2.385V453.957z M347.508,447.826
	h-1.668v2.539c-0.356-0.781-0.971-1.451-1.843-2.009s-1.921-0.849-3.147-0.874c-1.262,0.012-2.373,0.303-3.336,0.871
	c-0.962,0.569-1.716,1.343-2.261,2.321c-0.546,0.978-0.823,2.088-0.833,3.328c0.009,1.197,0.279,2.282,0.812,3.256
	s1.28,1.75,2.241,2.329c0.96,0.579,2.086,0.876,3.376,0.891c1.194-0.015,2.211-0.289,3.05-0.823c0.84-0.534,1.479-1.243,1.918-2.127
	v1.579c-0.016,1.025-0.253,1.903-0.711,2.633c-0.458,0.729-1.048,1.288-1.769,1.677s-1.481,0.585-2.282,0.589
	c-0.398,0.002-0.838-0.066-1.319-0.207c-0.481-0.14-0.949-0.369-1.405-0.687c-0.362-0.256-0.661-0.523-0.896-0.805
	s-0.424-0.555-0.569-0.821h-1.943c0.401,1.138,1.13,2.078,2.185,2.823s2.355,1.13,3.902,1.157c0.85-0.004,1.686-0.172,2.507-0.502
	c0.821-0.331,1.542-0.795,2.163-1.395c0.546-0.508,0.984-1.153,1.316-1.938c0.332-0.785,0.503-1.756,0.512-2.914V447.826z"/>
<polygon fill-rule="evenodd" clip-rule="evenodd" fill="#16A859" points="210.793,492.484 227.671,492.484 227.671,489.526 
	214.626,489.526 214.626,462.451 210.793,462.451 "/>
<path fill-rule="evenodd" clip-rule="evenodd" fill="#16A859" d="M232.994,481.568c0.054-2.498,0.987-4.568,2.8-6.213
	c1.812-1.645,4.18-2.497,7.103-2.559c2.216,0.031,4.111,0.528,5.686,1.492c1.574,0.965,2.717,2.213,3.43,3.746
	c0.278,0.531,0.485,1.093,0.619,1.686c0.134,0.592,0.19,1.194,0.167,1.807c0,0.593-0.069,1.184-0.208,1.771s-0.347,1.147-0.625,1.68
	c-0.686,1.572-1.801,2.844-3.343,3.816c-1.542,0.974-3.42,1.475-5.633,1.503c-2.278-0.034-4.153-0.493-5.625-1.378
	c-1.471-0.884-2.564-1.986-3.28-3.309c-0.716-1.321-1.079-2.656-1.09-4.003V481.568z M256.123,470.65h-3.417v4.588
	c-0.618-1.303-1.799-2.479-3.545-3.529c-1.746-1.05-3.957-1.605-6.634-1.667c-2.548,0.023-4.788,0.544-6.718,1.562
	c-1.931,1.019-3.439,2.393-4.526,4.124c-1.087,1.73-1.64,3.678-1.659,5.84c0.009,2.033,0.524,3.92,1.545,5.658
	c1.021,1.738,2.492,3.144,4.413,4.215c1.921,1.07,4.236,1.621,6.944,1.652c2.246-0.008,4.255-0.448,6.026-1.322
	c1.772-0.875,3.156-2.137,4.153-3.788v4.501h3.417V470.65z"/>
<polygon fill-rule="evenodd" clip-rule="evenodd" fill="#16A859" points="279.711,492.484 279.619,465.774 292.943,492.484 
	295.396,492.484 308.674,465.774 308.581,492.484 312.184,492.484 312.184,462.451 306.823,462.451 294.192,487.654 
	281.516,462.451 276.155,462.451 276.155,492.484 "/>
<path fill-rule="evenodd" clip-rule="evenodd" fill="#16A859" d="M320.804,481.568c0.064-2.549,1.011-4.629,2.84-6.238
	s4.152-2.44,6.97-2.492c2.838,0.052,5.167,0.883,6.986,2.492c1.82,1.609,2.762,3.689,2.823,6.238
	c-0.062,2.549-1.003,4.627-2.823,6.237c-1.819,1.61-4.148,2.44-6.986,2.492c-2.817-0.053-5.141-0.882-6.97-2.487
	s-2.775-3.673-2.84-6.202V481.568z M317.433,481.568c0.015,2.071,0.561,3.973,1.639,5.702c1.077,1.729,2.6,3.119,4.567,4.167
	c1.967,1.049,4.292,1.588,6.975,1.615c2.698-0.027,5.033-0.566,7.008-1.615c1.974-1.048,3.5-2.438,4.579-4.167
	s1.626-3.631,1.64-5.702c-0.014-2.073-0.561-3.978-1.64-5.714s-2.605-3.132-4.579-4.187c-1.975-1.056-4.31-1.598-7.008-1.626
	c-2.683,0.029-5.008,0.57-6.975,1.624c-1.968,1.054-3.49,2.446-4.567,4.177c-1.078,1.73-1.624,3.625-1.639,5.685V481.568z"/>
<rect x="348.976" y="462.451" fill-rule="evenodd" clip-rule="evenodd" fill="#16A859" width="3.417" height="30.033"/>
<path fill-rule="evenodd" clip-rule="evenodd" fill="#16A859" d="M360.9,481.568c0.054-2.498,0.986-4.568,2.799-6.213
	s4.18-2.497,7.103-2.559c2.216,0.031,4.111,0.528,5.686,1.492c1.574,0.965,2.718,2.213,3.43,3.746
	c0.278,0.531,0.485,1.093,0.619,1.686c0.134,0.592,0.189,1.194,0.167,1.807c0,0.593-0.068,1.184-0.208,1.771
	c-0.139,0.588-0.347,1.147-0.624,1.68c-0.687,1.572-1.801,2.844-3.344,3.816c-1.542,0.974-3.42,1.475-5.633,1.503
	c-2.278-0.034-4.153-0.493-5.625-1.378c-1.471-0.884-2.564-1.986-3.279-3.309c-0.716-1.321-1.079-2.656-1.09-4.003V481.568z
	 M384.028,470.65h-3.417v4.588c-0.618-1.303-1.8-2.479-3.546-3.529c-1.745-1.05-3.957-1.605-6.634-1.667
	c-2.548,0.023-4.787,0.544-6.718,1.562s-3.438,2.393-4.526,4.124c-1.087,1.73-1.64,3.678-1.658,5.84
	c0.009,2.033,0.524,3.92,1.545,5.658c1.021,1.738,2.492,3.144,4.413,4.215c1.921,1.07,4.235,1.621,6.944,1.652
	c2.246-0.008,4.255-0.448,6.027-1.322c1.771-0.875,3.155-2.137,4.152-3.788v4.501h3.417V470.65z"/>
<g>
</g>
<g>
</g>
<g>
</g>
<g>
</g>
<g>
</g>
<g>
</g>
</svg>
